<svg width="37" height="30" viewBox="0 0 37 30" fill="none" xmlns="http://www.w3.org/2000/svg">
<path d="M36.4142 16.1427C37.1953 15.3617 37.1953 14.0954 36.4142 13.3143L23.6863 0.58638C22.9052 -0.194669 21.6389 -0.194669 20.8579 0.58638C20.0768 1.36743 20.0768 2.63376 20.8579 3.41481L32.1716 14.7285L20.8579 26.0422C20.0768 26.8233 20.0768 28.0896 20.8579 28.8707C21.6389 29.6517 22.9052 29.6517 23.6863 28.8707L36.4142 16.1427ZM0 14.7285V16.7285H2.1875V14.7285V12.7285H0V14.7285ZM6.5625 14.7285V16.7285H10.9375V14.7285V12.7285H6.5625V14.7285ZM15.3125 14.7285V16.7285H19.6875V14.7285V12.7285H15.3125V14.7285ZM24.0625 14.7285V16.7285H28.4375V14.7285V12.7285H24.0625V14.7285ZM32.8125 14.7285V16.7285H35V14.7285V12.7285H32.8125V14.7285ZM36.4142 16.1427C37.1953 15.3617 37.1953 14.0954 36.4142 13.3143L23.6863 0.58638C22.9052 -0.194669 21.6389 -0.194669 20.8579 0.58638C20.0768 1.36743 20.0768 2.63376 20.8579 3.41481L32.1716 14.7285L20.8579 26.0422C20.0768 26.8233 20.0768 28.0896 20.8579 28.8707C21.6389 29.6517 22.9052 29.6517 23.6863 28.8707L36.4142 16.1427ZM0 14.7285V16.7285H2.1875V14.7285V12.7285H0V14.7285ZM6.5625 14.7285V16.7285H10.9375V14.7285V12.7285H6.5625V14.7285ZM15.3125 14.7285V16.7285H19.6875V14.7285V12.7285H15.3125V14.7285ZM24.0625 14.7285V16.7285H28.4375V14.7285V12.7285H24.0625V14.7285ZM32.8125 14.7285V16.7285H35V14.7285V12.7285H32.8125V14.7285Z" fill="#EFA3AF"/>
</svg>
