<svg width="30" height="52" viewBox="0 0 30 52" fill="none" xmlns="http://www.w3.org/2000/svg">
<path d="M13.3123 51.4142C14.0934 52.1953 15.3597 52.1953 16.1408 51.4142L28.8687 38.6863C29.6497 37.9052 29.6497 36.6389 28.8687 35.8579C28.0876 35.0768 26.8213 35.0768 26.0403 35.8579L14.7266 47.1716L3.41285 35.8579C2.63181 35.0768 1.36548 35.0768 0.584427 35.8579C-0.196622 36.6389 -0.196622 37.9052 0.584427 38.6863L13.3123 51.4142ZM14.7266 0L12.7266 0V2.08333H14.7266H16.7266V0L14.7266 0ZM14.7266 6.25H12.7266V10.4167H14.7266H16.7266V6.25H14.7266ZM14.7266 14.5833H12.7266L12.7266 18.75H14.7266H16.7266V14.5833H14.7266ZM14.7266 22.9167H12.7266V27.0833H14.7266H16.7266V22.9167H14.7266ZM14.7266 31.25H12.7266V35.4167H14.7266H16.7266L16.7266 31.25H14.7266ZM14.7266 39.5833H12.7266L12.7266 43.75H14.7266H16.7266V39.5833H14.7266ZM14.7266 47.9167H12.7266V50H14.7266H16.7266V47.9167H14.7266ZM13.3123 51.4142C14.0934 52.1953 15.3597 52.1953 16.1408 51.4142L28.8687 38.6863C29.6497 37.9052 29.6497 36.6389 28.8687 35.8579C28.0876 35.0768 26.8213 35.0768 26.0403 35.8579L14.7266 47.1716L3.41285 35.8579C2.63181 35.0768 1.36548 35.0768 0.584427 35.8579C-0.196622 36.6389 -0.196622 37.9052 0.584427 38.6863L13.3123 51.4142ZM14.7266 0L12.7266 0V2.08333H14.7266H16.7266V0L14.7266 0ZM14.7266 6.25H12.7266V10.4167H14.7266H16.7266V6.25H14.7266ZM14.7266 14.5833H12.7266L12.7266 18.75H14.7266H16.7266V14.5833H14.7266ZM14.7266 22.9167H12.7266V27.0833H14.7266H16.7266V22.9167H14.7266ZM14.7266 31.25H12.7266V35.4167H14.7266H16.7266L16.7266 31.25H14.7266ZM14.7266 39.5833H12.7266L12.7266 43.75H14.7266H16.7266V39.5833H14.7266ZM14.7266 47.9167H12.7266V50H14.7266H16.7266V47.9167H14.7266Z" fill="#EFA3AF"/>
</svg>
