<svg width="56" height="56" viewBox="0 0 56 56" fill="none" xmlns="http://www.w3.org/2000/svg">
<path d="M42.0539 42.9301C40.2077 42.1208 38.9477 40.4005 38.2731 38.6895C37.9823 39.6253 37.4944 40.4881 36.8422 41.2196C36.1901 41.9511 35.3887 42.5343 34.4922 42.9301C36.3384 43.74 37.5984 45.4602 38.2731 47.1713C38.5639 46.2353 39.0518 45.3726 39.7039 44.641C40.3561 43.9095 41.1574 43.3261 42.0539 42.9301Z" fill="#FCCE59"/>
<path d="M47.3555 23.7219C44.8985 22.6447 43.2215 20.3557 42.3242 18.0781C41.4448 20.6034 39.8086 22.6434 37.293 23.7219C39.75 24.7994 41.4269 27.0906 42.3242 29.3656C43.2036 26.8399 44.8398 24.8003 47.3555 23.7219Z" fill="#FCCE59"/>
<path d="M31.9585 13.2402C29.8174 12.3013 28.3557 10.3063 27.5734 8.32227C27.236 9.4077 26.67 10.4083 25.9135 11.2566C25.1569 12.1049 24.2274 12.7813 23.1875 13.2402C25.3286 14.1795 26.7903 16.1745 27.5721 18.1586C27.9098 17.0732 28.476 16.0727 29.2326 15.2243C29.9892 14.3759 30.9187 13.6994 31.9585 13.2402Z" fill="#FCCE59"/>
<path d="M28.1434 31.0208C23.2229 28.8631 19.8629 23.3182 18.0691 18.7568C16.3082 23.8143 13.0304 28.8631 7.99219 31.0213C12.911 33.179 16.2697 38.7256 18.0691 43.2853C19.8274 38.2278 23.1052 33.1803 28.1434 31.0208Z" fill="#FCCE59"/>
</svg>
