<svg width="56" height="56" viewBox="0 0 56 56" fill="none" xmlns="http://www.w3.org/2000/svg">
<path d="M33.7498 18.4187L25.8845 10.5527C22.488 7.14909 16.9518 7.14909 13.5474 10.5527C10.1509 13.9492 10.1509 19.4863 13.5474 22.8907L21.4126 30.7559L33.7498 18.4187Z" fill="#D8A7AF"/>
<path d="M42.7405 39.745C41.5155 40.97 39.9804 41.7892 38.3179 42.1233V37.9075C38.3179 33.3338 31.2147 31.2816 24.1672 31.2816C23.8172 31.2816 23.4672 31.2896 23.1172 31.2975L34.8737 19.541L42.7405 27.4079C46.145 30.8043 46.145 36.3405 42.7405 39.745Z" fill="#EFA3AF"/>
<path d="M36.7254 41.2324V43.5312C36.7254 46.8004 30.2506 48.5663 24.1655 48.5663C18.0725 48.5663 11.5977 46.8004 11.5977 43.5312V41.2324C14.0874 43.4915 19.1384 44.5335 24.1655 44.5335C29.1926 44.5335 34.2436 43.4915 36.7254 41.2324Z" fill="#D8A7AF"/>
<path d="M34.5622 40.8114C35.893 40.0407 36.7234 39.071 36.7234 37.9081C36.7234 34.6389 30.2486 32.873 24.1635 32.873C21.2284 32.873 18.2121 33.2867 15.8672 34.0765L34.5622 40.8114Z" fill="#EFA3AF"/>
<path d="M13.7557 35.0059C12.4265 35.7767 11.5977 36.7447 11.5977 37.9068C11.5977 41.176 18.0725 42.9427 24.1655 42.9427C27.0943 42.9427 30.1066 42.5291 32.4499 41.74L13.7557 35.0059Z" fill="#EFA3AF"/>
</svg>
