<svg width="360" height="258" viewBox="0 0 360 258" fill="none" xmlns="http://www.w3.org/2000/svg">
<g clip-path="url(#clip0_933_22633)">
<path d="M46.1295 77.0348C50.7338 71.4874 49.9061 63.3096 44.2808 58.7691C38.6555 54.2286 30.3628 55.0449 25.7586 60.5923C21.1543 66.1397 21.9821 74.3175 27.6074 78.858C33.2326 83.3985 41.5253 82.5822 46.1295 77.0348Z" fill="#6B6B6B"/>
<path d="M47.3209 81.5175C44.2851 84.1698 40.3119 85.7873 35.9415 85.7873C30.7866 85.7873 26.1615 83.5268 23.0034 79.9704H20.7519V52.7647C20.7519 47.1387 16.0861 42.5273 10.3709 42.5273C4.65569 42.5273 0 47.1387 0 52.7647V92.9504L3.03587 115.896H12.6529L13.1622 100.435H44.0711C45.4159 95.5122 46.6995 90.047 47.0968 84.853C47.1885 83.6876 47.2598 82.5724 47.3311 81.5175H47.3209Z" fill="#6B6B6B"/>
<path d="M153.514 79.9805C153.443 84.7123 153.147 89.4844 152.73 93.724C152.027 100.927 151.12 106.192 150.152 110.07L150.346 115.907H159.963L162.999 92.9605V79.9805H153.514Z" fill="#6B6B6B"/>
<path d="M51.1314 59.1932C51.1314 59.1932 52.7207 63.9954 51.1314 85.1532C50.0006 100.122 42.0238 116.599 45.0597 117.603C48.0956 118.598 65.8116 112.61 92.1361 115.112C118.461 117.603 136.503 120.848 142.248 117.724C147.994 114.589 151.865 74.6748 147.821 61.2025C143.766 47.7202 80.4918 32.751 51.1314 59.2033V59.1932Z" fill="#6B6B6B"/>
<g clip-path="url(#clip1_933_22633)">
<path d="M15.2581 15.5498C14.6182 15.6026 13.9717 15.6157 13.3406 15.7179C12.623 15.8343 11.9252 16.0727 11.2076 16.1759C10.6749 16.2528 10.198 16.0804 10 15.2961C10.9954 14.5679 12.1089 13.8979 13.2378 13.3256C17.7334 11.0454 22.3625 9.09464 27.3745 8.25328C28.1588 8.12147 28.9682 8.13575 29.7667 8.0984C31.8144 8.00175 33.4967 7.13732 34.9537 5.76544C34.7218 5.19208 34.2985 5.34915 33.9812 5.35025C30.3989 5.36123 26.8615 5.82036 23.3415 6.44534C23.2704 6.45852 23.2015 6.49586 23.1304 6.49916C19.361 6.72213 15.9209 8.1698 12.4218 9.39669C12.1505 9.49225 11.853 9.62955 11.5893 9.59221C11.3662 9.56035 11.1737 9.30443 10.9735 9.15176C11.4012 8.43451 12.0214 8.19616 12.634 7.96989C14.4103 7.31306 16.1922 6.6749 17.9752 6.03564C18.2486 5.93788 18.5297 5.84342 18.8152 5.80059C24.5732 4.93067 30.3038 3.76308 36.1788 4.04207C36.8766 4.07503 37.7583 3.84766 37.9727 4.82961C38.1553 5.66329 37.3601 5.88626 36.8373 6.24323C36.1186 6.73421 35.3945 7.2175 34.5139 7.81173C35.1145 8.18847 35.6001 8.45208 36.0398 8.77721C37.0724 9.54278 36.9948 10.3951 35.8648 10.9213C35.2731 11.1969 34.6758 11.4595 34.0852 11.7363C34.0294 11.7626 34.0009 11.8461 33.9452 11.923C33.8784 12.5282 34.5118 12.6962 34.7338 13.1246C34.9329 13.5101 35.2107 13.9001 35.2523 14.3098C35.3015 14.7909 35.1342 15.2939 35.0521 15.842C35.086 15.9068 35.1287 16.0562 35.2238 16.154C36.6983 17.6785 36.6415 18.209 34.8837 19.3239C34.3433 19.6666 33.8106 20.0214 33.267 20.3761C33.5951 20.9835 34.0764 20.6892 34.4527 20.7716C34.8049 20.8484 35.1834 20.8342 35.517 20.9528C36.2838 21.2274 36.4643 22.2467 35.797 22.7146C35.0248 23.2572 34.1913 23.7196 33.3556 24.1612C32.7146 24.5006 32.0288 24.7543 31.367 25.0509C31.3178 25.0904 31.2598 25.1201 31.2117 25.1618C31.1307 25.2321 31.0563 25.309 30.9787 25.3826C31.0366 25.4012 31.1242 25.4529 31.146 25.432C31.2259 25.3573 31.297 25.2661 31.3429 25.1673C31.3637 25.1212 31.3199 25.0454 31.3057 24.9828C31.9456 25.0399 32.5877 25.0838 33.2254 25.1585C33.6083 25.2035 33.9583 25.3979 33.8817 25.8252C33.8434 26.0372 33.5339 26.3459 33.3315 26.359C32.2869 26.4271 31.3845 26.85 30.5182 27.375C30.3661 27.4673 30.295 27.6947 30.1845 27.8572C29.8476 27.855 29.5118 27.855 28.9441 27.855C29.5862 28.3427 29.8892 28.1791 30.1485 27.8111C31.4326 27.9286 32.5527 27.3322 33.7319 26.9873C34.3521 26.8061 34.9876 26.66 35.6253 26.5622C35.7445 26.5436 35.9447 26.8094 36.0409 26.9818C36.0891 27.0675 36.0267 27.2971 35.9414 27.3608C35.6526 27.5716 35.3387 27.7518 35.0215 27.9176C33.4092 28.7601 31.7881 29.5872 30.1802 30.4384C29.9494 30.5604 29.7744 30.7877 29.4648 31.0623C30.3267 31.4544 31.0038 31.3127 31.6798 31.0832C32.5068 30.802 33.3337 30.5219 34.1584 30.2363C34.549 30.1012 34.8738 30.1759 35.1079 30.5241C35.3726 30.9195 35.1265 31.2392 34.8815 31.4929C34.5293 31.8586 34.1213 32.1717 33.7319 32.5001C32.7332 33.3415 31.8461 34.2817 31.041 35.2263C31.3189 35.8535 31.7312 35.6942 32.0255 35.6206C32.9432 35.3921 33.8347 35.0593 34.7535 34.8375C35.9217 34.5552 36.4774 35.1593 36.0934 36.261C35.9272 36.7377 35.6964 37.1913 35.5093 37.623C35.6986 38.048 35.8648 38.4237 36.0398 38.8191C34.0556 39.2288 33.9462 39.1091 33.943 36.5982C33.0854 36.7838 32.2399 36.9804 31.3889 37.1441C30.9634 37.2253 30.5225 37.3132 30.097 37.2814C29.0896 37.2056 28.6029 36.1918 29.1924 35.391C29.794 34.5738 30.4591 33.8039 31.0826 33.0295C30.9426 32.4737 30.5149 32.6385 30.1944 32.611C29.8323 32.5792 29.4659 32.5902 29.1016 32.6077C28.2113 32.6528 27.5561 32.2958 27.0934 31.3918C27.2848 31.0129 27.5079 30.5735 27.7726 30.0485C26.8013 29.6718 25.4756 30.1342 25.0588 28.7546C24.2341 28.9699 23.6139 29.183 22.9762 29.2851C22.3417 29.3873 21.6844 29.4455 21.051 29.3818C20.8312 29.3598 20.6551 28.9106 20.4374 28.6272C24.8685 26.5787 29.1542 24.5994 33.4332 22.6059C33.5295 22.5608 33.5536 22.3598 33.652 22.1401C32.148 22.083 30.761 22.4861 29.3554 22.7893C26.3485 23.4373 23.5898 24.829 20.6474 25.6627C20.0917 25.8197 19.5186 26.0119 18.9552 26.0086C18.6194 26.0065 18.2869 25.655 17.7301 25.3298C18.2552 25.0267 18.5319 24.8037 18.848 24.695C20.7054 24.0513 22.5736 23.4373 24.4364 22.808C27.8328 21.6601 31.029 20.0774 34.1234 18.2804C34.3641 18.1409 34.55 17.9048 34.7491 17.7005C34.7797 17.6697 34.736 17.5665 34.7065 17.3391C33.617 16.9448 32.5483 17.1952 31.4446 17.584C28.1467 18.745 24.8521 19.9192 21.517 20.9627C19.9277 21.4602 18.2563 21.7118 16.609 21.9985C16.0522 22.0951 15.444 22.0127 14.8818 21.8985C14.6685 21.8546 14.4136 21.5086 14.3742 21.268C14.3371 21.044 14.4968 20.6441 14.6827 20.5519C15.4626 20.1631 16.2731 19.8291 17.0935 19.5326C20.4549 18.32 23.8644 17.2699 27.3865 16.6427C28.8183 16.3879 30.2622 16.1968 31.7039 16.0112C32.4444 15.9156 33.1259 15.7212 33.7089 15.2335C34.281 14.7557 34.3225 14.0396 33.7822 13.5222C33.0416 12.8138 32.2027 12.5084 31.1876 12.8874C30.027 13.3212 28.8665 13.754 27.6939 14.1549C25.282 14.9798 22.8843 15.8585 20.4385 16.5691C18.7671 17.0546 17.0279 17.3116 15.3106 17.6291C14.5569 17.7686 14.4191 17.6269 13.928 16.5757C14.3425 16.2253 14.7746 15.8607 15.2056 15.4938C15.257 15.384 15.654 15.5476 15.4221 15.2148C15.3685 15.3269 15.3149 15.44 15.2613 15.552L15.2581 15.5498ZM22.7344 13.8858C21.7697 14.5174 20.4516 14.3746 19.3982 15.4543C20.7054 15.3236 21.6701 14.9029 22.6229 14.4701C22.7257 14.4229 22.6983 14.0868 22.7322 13.8836C24.5327 14.19 25.1529 14.0374 26.4174 12.9972C25.2153 13.2872 23.9748 13.587 22.7344 13.8869V13.8858ZM25.1091 10.0491C22.2488 10.6302 19.0132 11.9032 17.4009 13.0807C17.5387 13.1015 17.6962 13.1773 17.8111 13.1345C20.1256 12.2789 22.4369 11.4177 24.7394 10.5291C24.8904 10.4709 24.9571 10.1919 25.0796 10.0294C25.3531 10.0832 25.6473 10.2919 25.9416 9.87998C25.609 9.94808 25.3596 9.99861 25.1102 10.0491H25.1091ZM26.9173 11.4298C29.9669 11.5759 32.5133 11.4254 34.829 10.0041C34.9384 9.9371 34.9099 9.64383 34.9734 9.31761C33.792 9.31761 32.7036 9.29564 31.6175 9.32969C31.2653 9.34068 30.8934 9.44612 30.5729 9.5988C29.4725 10.1227 28.3917 10.6873 26.9184 11.4298H26.9173ZM21.2621 19.5875L21.2523 19.6962L21.3989 19.649L21.2621 19.5864V19.5875Z" fill="#6B6B6B"/>
</g>
</g>
<g clip-path="url(#clip2_933_22633)">
<path d="M210.922 27.869C212.909 28.3311 215.395 28.9239 216.362 29.2655C218.104 29.8682 219.806 30.6217 220.661 30.3203C221.517 30.0189 221.752 27.0251 220.702 27.1055C219.653 27.1858 212.267 25.0359 212.267 25.0359C212.267 25.0359 213.398 23.9509 215.14 23.1974C216.882 22.4339 222.638 20.1132 223.086 19.7113C223.534 19.3094 223.82 18.1943 223.738 17.1495C223.657 16.1147 220.621 16.5467 217.086 15.5119C213.561 14.4771 212.379 14.3566 212.379 14.3566C211.228 14.1355 210.759 17.3604 212.216 17.7121C213.673 18.0737 217.055 18.8975 217.055 18.8975L210.403 22.1626C209.649 22.5343 209.109 23.2075 208.905 24.0112L208.793 24.4331C208.406 25.9602 209.364 27.5073 210.912 27.859L210.922 27.869Z" fill="#EFA3AF"/>
<path d="M231.147 32.7018C232.166 33.4352 234.529 35.1431 234.529 35.1431L228.305 35.6052C227.602 35.6554 226.96 36.0071 226.542 36.5697L226.318 36.8711C225.523 37.936 225.768 39.4329 226.868 40.1964C228.264 41.181 229.996 42.4167 230.648 42.9793C231.809 43.994 232.889 45.1091 233.653 45.1393C234.417 45.1694 235.558 42.919 234.723 42.6478C233.887 42.3765 228.834 38.3981 228.834 38.3981C228.834 38.3981 230.067 37.9159 231.667 37.8657C233.266 37.8154 238.482 37.8154 238.961 37.6446C239.44 37.4739 240.02 36.6902 240.285 35.8564C240.56 35.0225 238.054 34.4197 235.64 32.5109C233.225 30.6021 232.359 30.14 232.359 30.14C231.534 29.6075 230.138 31.9684 231.157 32.7018H231.147Z" fill="#EFA3AF"/>
<path d="M224.83 4.34093C225.931 4.10986 228.488 3.55731 228.488 3.55731L225.105 7.93755C224.728 8.42983 224.586 9.06275 224.718 9.67559L224.79 9.99707C225.044 11.1524 226.206 11.8858 227.377 11.6145C228.875 11.273 230.749 10.8611 231.513 10.7706C232.889 10.5999 234.294 10.5597 234.763 10.0774C235.232 9.59522 234.386 7.49551 233.704 7.89737C233.021 8.29923 227.326 9.26368 227.326 9.26368C227.326 9.26368 227.724 8.16862 228.651 7.08361C229.567 5.99859 232.664 2.55267 232.838 2.14076C233.001 1.72886 232.817 0.874911 232.41 0.201799C232.002 -0.471312 230.107 0.824678 227.377 1.27677C224.647 1.72886 223.822 2.0403 223.822 2.0403C222.976 2.27136 223.74 4.59209 224.84 4.36102L224.83 4.34093Z" fill="#EFA3AF"/>
<path d="M229.13 77.0348C233.734 71.4874 232.906 63.3096 227.281 58.7691C221.656 54.2286 213.363 55.0449 208.759 60.5923C204.154 66.1397 204.982 74.3175 210.607 78.858C216.233 83.3985 224.525 82.5822 229.13 77.0348Z" fill="#EFA3AF"/>
<path d="M230.321 81.5175C227.285 84.1698 223.312 85.7873 218.941 85.7873C213.787 85.7873 209.161 83.5268 206.003 79.9704H203.752V52.7647C203.752 47.1387 199.086 42.5273 193.371 42.5273C187.656 42.5273 183 47.1387 183 52.7647V92.9504L186.036 115.896H195.653L196.162 100.435H227.071C228.416 95.5122 229.699 90.047 230.097 84.853C230.188 83.6876 230.26 82.5724 230.331 81.5175H230.321Z" fill="#EFA3AF"/>
<path d="M336.514 79.9805C336.443 84.7123 336.147 89.4844 335.73 93.724C335.027 100.927 334.12 106.192 333.152 110.07L333.346 115.907H342.963L345.999 92.9605V79.9805H336.514Z" fill="#EFA3AF"/>
<path d="M234.131 59.1932C234.131 59.1932 235.721 63.9954 234.131 85.1532C233.001 100.122 225.024 116.599 228.06 117.603C231.096 118.598 248.812 112.61 275.136 115.112C301.461 117.603 319.503 120.848 325.248 117.724C330.994 114.589 334.865 74.6748 330.821 61.2025C326.766 47.7202 263.492 32.751 234.131 59.2033V59.1932Z" fill="#EFA3AF"/>
</g>
<g clip-path="url(#clip3_933_22633)">
<path d="M27.9222 166.869C29.9088 167.331 32.3945 167.924 33.3623 168.265C35.1044 168.868 36.8057 169.622 37.6614 169.32C38.5172 169.019 38.7515 166.025 37.7022 166.105C36.6529 166.186 29.2669 164.036 29.2669 164.036C29.2669 164.036 30.3978 162.951 32.1398 162.197C33.8819 161.434 39.6378 159.113 40.0861 158.711C40.5343 158.309 40.8196 157.194 40.7381 156.149C40.6566 155.115 37.6207 155.547 34.0856 154.512C30.5608 153.477 29.379 153.357 29.379 153.357C28.2278 153.136 27.7592 156.36 29.216 156.712C30.6728 157.074 34.0551 157.898 34.0551 157.898L27.4026 161.163C26.6488 161.534 26.1088 162.207 25.9051 163.011L25.793 163.433C25.4059 164.96 26.3635 166.507 27.912 166.859L27.9222 166.869Z" fill="#EFA3AF"/>
<path d="M48.147 171.702C49.1657 172.435 51.5292 174.143 51.5292 174.143L45.3047 174.605C44.6017 174.655 43.9599 175.007 43.5422 175.57L43.3181 175.871C42.5235 176.936 42.768 178.433 43.8682 179.196C45.2639 180.181 46.9958 181.417 47.6478 181.979C48.8092 182.994 49.889 184.109 50.6531 184.139C51.4172 184.169 52.5582 181.919 51.7228 181.648C50.8874 181.377 45.8344 177.398 45.8344 177.398C45.8344 177.398 47.0671 176.916 48.6665 176.866C50.266 176.815 55.482 176.815 55.9608 176.645C56.4396 176.474 57.0203 175.69 57.2852 174.856C57.5602 174.023 55.0541 173.42 52.6397 171.511C50.2252 169.602 49.3593 169.14 49.3593 169.14C48.5341 168.607 47.1384 170.968 48.1572 171.702H48.147Z" fill="#EFA3AF"/>
<path d="M41.8303 143.341C42.9306 143.11 45.4876 142.557 45.4876 142.557L42.1054 146.938C41.7284 147.43 41.5858 148.063 41.7182 148.676L41.7896 148.997C42.0442 150.152 43.2056 150.886 44.3772 150.615C45.8747 150.273 47.7492 149.861 48.5133 149.771C49.8886 149.6 51.2945 149.56 51.7631 149.077C52.2317 148.595 51.3862 146.496 50.7036 146.897C50.0211 147.299 44.3262 148.264 44.3262 148.264C44.3262 148.264 44.7236 147.169 45.6506 146.084C46.5675 144.999 49.6645 141.553 49.8377 141.141C50.0007 140.729 49.8173 139.875 49.4098 139.202C49.0023 138.529 47.1074 139.825 44.3772 140.277C41.6469 140.729 40.8217 141.04 40.8217 141.04C39.9762 141.271 40.7402 143.592 41.8405 143.361L41.8303 143.341Z" fill="#EFA3AF"/>
<path d="M46.1295 216.035C50.7338 210.487 49.9061 202.31 44.2808 197.769C38.6555 193.229 30.3628 194.045 25.7586 199.592C21.1543 205.14 21.9821 213.318 27.6074 217.858C33.2326 222.398 41.5253 221.582 46.1295 216.035Z" fill="#EFA3AF"/>
<path d="M47.3209 220.518C44.2851 223.17 40.3119 224.787 35.9415 224.787C30.7866 224.787 26.1615 222.527 23.0034 218.97H20.7519V191.765C20.7519 186.139 16.0861 181.527 10.3709 181.527C4.65569 181.527 0 186.139 0 191.765V231.95L3.03587 254.896H12.6529L13.1622 239.435H44.0711C45.4159 234.512 46.6995 229.047 47.0968 223.853C47.1885 222.688 47.2598 221.572 47.3311 220.518H47.3209Z" fill="#EFA3AF"/>
<path d="M153.514 218.98C153.443 223.712 153.147 228.484 152.73 232.724C152.027 239.927 151.12 245.192 150.152 249.07L150.346 254.907H159.963L162.999 231.96V218.98H153.514Z" fill="#EFA3AF"/>
<path d="M51.1314 198.193C51.1314 198.193 52.7207 202.995 51.1314 224.153C50.0006 239.122 42.0238 255.599 45.0597 256.603C48.0956 257.598 65.8116 251.61 92.1361 254.112C118.461 256.603 136.503 259.848 142.248 256.724C147.994 253.589 151.865 213.675 147.821 200.202C143.766 186.72 80.4918 171.751 51.1314 198.203V198.193Z" fill="#EFA3AF"/>
</g>
<g clip-path="url(#clip4_933_22633)">
<path d="M210.922 166.869C212.909 167.331 215.395 167.924 216.362 168.265C218.104 168.868 219.806 169.622 220.661 169.32C221.517 169.019 221.752 166.025 220.702 166.105C219.653 166.186 212.267 164.036 212.267 164.036C212.267 164.036 213.398 162.951 215.14 162.197C216.882 161.434 222.638 159.113 223.086 158.711C223.534 158.309 223.82 157.194 223.738 156.149C223.657 155.115 220.621 155.547 217.086 154.512C213.561 153.477 212.379 153.357 212.379 153.357C211.228 153.136 210.759 156.36 212.216 156.712C213.673 157.074 217.055 157.898 217.055 157.898L210.403 161.163C209.649 161.534 209.109 162.207 208.905 163.011L208.793 163.433C208.406 164.96 209.364 166.507 210.912 166.859L210.922 166.869Z" fill="#EFA3AF"/>
<path d="M231.147 171.702C232.166 172.435 234.529 174.143 234.529 174.143L228.305 174.605C227.602 174.655 226.96 175.007 226.542 175.57L226.318 175.871C225.523 176.936 225.768 178.433 226.868 179.196C228.264 180.181 229.996 181.417 230.648 181.979C231.809 182.994 232.889 184.109 233.653 184.139C234.417 184.169 235.558 181.919 234.723 181.648C233.887 181.377 228.834 177.398 228.834 177.398C228.834 177.398 230.067 176.916 231.667 176.866C233.266 176.815 238.482 176.815 238.961 176.645C239.44 176.474 240.02 175.69 240.285 174.856C240.56 174.023 238.054 173.42 235.64 171.511C233.225 169.602 232.359 169.14 232.359 169.14C231.534 168.607 230.138 170.968 231.157 171.702H231.147Z" fill="#EFA3AF"/>
<path d="M224.83 143.341C225.931 143.11 228.488 142.557 228.488 142.557L225.105 146.938C224.728 147.43 224.586 148.063 224.718 148.676L224.79 148.997C225.044 150.152 226.206 150.886 227.377 150.615C228.875 150.273 230.749 149.861 231.513 149.771C232.889 149.6 234.294 149.56 234.763 149.077C235.232 148.595 234.386 146.496 233.704 146.897C233.021 147.299 227.326 148.264 227.326 148.264C227.326 148.264 227.724 147.169 228.651 146.084C229.567 144.999 232.664 141.553 232.838 141.141C233.001 140.729 232.817 139.875 232.41 139.202C232.002 138.529 230.107 139.825 227.377 140.277C224.647 140.729 223.822 141.04 223.822 141.04C222.976 141.271 223.74 143.592 224.84 143.361L224.83 143.341Z" fill="#EFA3AF"/>
<path d="M229.13 216.035C233.734 210.487 232.906 202.31 227.281 197.769C221.656 193.229 213.363 194.045 208.759 199.592C204.154 205.14 204.982 213.318 210.607 217.858C216.233 222.398 224.525 221.582 229.13 216.035Z" fill="#EFA3AF"/>
<path d="M230.321 220.518C227.285 223.17 223.312 224.787 218.941 224.787C213.787 224.787 209.161 222.527 206.003 218.97H203.752V191.765C203.752 186.139 199.086 181.527 193.371 181.527C187.656 181.527 183 186.139 183 191.765V231.95L186.036 254.896H195.653L196.162 239.435H227.071C228.416 234.512 229.699 229.047 230.097 223.853C230.188 222.688 230.26 221.572 230.331 220.518H230.321Z" fill="#EFA3AF"/>
<path d="M336.514 218.98C336.443 223.712 336.147 228.484 335.73 232.724C335.027 239.927 334.12 245.192 333.152 249.07L333.346 254.907H342.963L345.999 231.96V218.98H336.514Z" fill="#EFA3AF"/>
<path d="M234.131 198.193C234.131 198.193 235.721 202.995 234.131 224.153C233.001 239.122 225.024 255.599 228.06 256.603C231.096 257.598 248.812 251.61 275.136 254.112C301.461 256.603 319.503 259.848 325.248 256.724C330.994 253.589 334.865 213.675 330.821 200.202C326.766 186.72 263.492 171.751 234.131 198.203V198.193Z" fill="#EFA3AF"/>
</g>
<defs>
<clipPath id="clip0_933_22633">
<rect width="163" height="119" fill="white"/>
</clipPath>
<clipPath id="clip1_933_22633">
<rect width="28" height="35" fill="white" transform="translate(10 4)"/>
</clipPath>
<clipPath id="clip2_933_22633">
<rect width="163" height="119" fill="white" transform="translate(183)"/>
</clipPath>
<clipPath id="clip3_933_22633">
<rect width="163" height="119" fill="white" transform="translate(0 139)"/>
</clipPath>
<clipPath id="clip4_933_22633">
<rect width="163" height="119" fill="white" transform="translate(183 139)"/>
</clipPath>
</defs>
</svg>
