<svg width="170" height="144" viewBox="0 0 170 144" fill="none" xmlns="http://www.w3.org/2000/svg">
<rect x="0.5" y="0.5" width="73" height="29" rx="7.5" fill="white"/>
<rect x="0.5" y="0.5" width="73" height="29" rx="7.5" stroke="#EFA3AF"/>
<path d="M26.248 12.72C25.8373 12.7573 25.408 12.804 24.96 12.86C24.512 12.9067 24.0593 12.958 23.602 13.014C23.1447 13.0607 22.72 13.1073 22.328 13.154C21.936 13.2007 21.5953 13.238 21.306 13.266C21.026 13.294 20.8253 13.308 20.704 13.308C20.508 13.308 20.3027 13.2193 20.088 13.042C19.8733 12.8647 19.7007 12.6827 19.57 12.496C19.486 12.3467 19.4113 12.1973 19.346 12.048C19.29 11.8987 19.2387 11.7353 19.192 11.558L19.388 11.432C19.6493 11.6653 19.892 11.8427 20.116 11.964C20.34 12.0853 20.5827 12.146 20.844 12.146C21.0213 12.146 21.236 12.1367 21.488 12.118C21.74 12.09 22.006 12.062 22.286 12.034C22.566 11.9967 22.8367 11.9593 23.098 11.922C23.3687 11.8847 23.602 11.8427 23.798 11.796C24.106 11.7307 24.344 11.6653 24.512 11.6C24.68 11.5253 24.8107 11.4647 24.904 11.418C25.0067 11.362 25.1 11.334 25.184 11.334C25.3427 11.334 25.5153 11.3573 25.702 11.404C25.898 11.4413 26.08 11.4973 26.248 11.572C26.416 11.6373 26.5513 11.7213 26.654 11.824C26.766 11.9267 26.822 12.034 26.822 12.146C26.822 12.286 26.7753 12.412 26.682 12.524C26.5887 12.636 26.444 12.7013 26.248 12.72ZM17.134 16.556L17.372 16.458C17.5493 16.6447 17.7313 16.8033 17.918 16.934C18.114 17.0647 18.3427 17.13 18.604 17.13C18.7627 17.13 19.0473 17.116 19.458 17.088C19.8687 17.0507 20.3493 17.0087 20.9 16.962C21.46 16.906 22.048 16.85 22.664 16.794C23.2893 16.7287 23.896 16.6727 24.484 16.626C25.0813 16.57 25.6087 16.528 26.066 16.5C26.2993 16.472 26.486 16.444 26.626 16.416C26.766 16.3787 26.8733 16.346 26.948 16.318C27.032 16.29 27.1067 16.276 27.172 16.276C27.34 16.276 27.5313 16.318 27.746 16.402C27.97 16.486 28.1847 16.5933 28.39 16.724C28.5953 16.8453 28.7633 16.9807 28.894 17.13C29.034 17.27 29.104 17.41 29.104 17.55C29.104 17.718 29.0527 17.8533 28.95 17.956C28.8567 18.0493 28.7213 18.096 28.544 18.096C28.3853 18.096 28.152 18.0587 27.844 17.984C27.5453 17.9093 27.1673 17.8393 26.71 17.774C26.2527 17.6993 25.7113 17.662 25.086 17.662C24.722 17.662 24.316 17.676 23.868 17.704C23.4293 17.732 22.9813 17.774 22.524 17.83C22.0667 17.8767 21.628 17.9327 21.208 17.998C20.788 18.0633 20.4147 18.1427 20.088 18.236C19.78 18.3107 19.5187 18.3947 19.304 18.488C19.0987 18.572 18.9027 18.614 18.716 18.614C18.5947 18.614 18.4593 18.572 18.31 18.488C18.1607 18.3947 18.016 18.2873 17.876 18.166C17.7453 18.0353 17.624 17.9047 17.512 17.774C17.4093 17.634 17.3393 17.5173 17.302 17.424C17.246 17.312 17.204 17.1907 17.176 17.06C17.1573 16.9293 17.1433 16.7613 17.134 16.556ZM34.228 9.528C34.424 9.42533 34.6433 9.332 34.886 9.248C35.1287 9.164 35.32 9.122 35.46 9.122C35.6093 9.122 35.7727 9.14533 35.95 9.192C36.1273 9.22933 36.2953 9.28533 36.454 9.36C36.6127 9.42533 36.748 9.50467 36.86 9.598C36.972 9.682 37.0327 9.766 37.042 9.85C37.0513 9.95267 37.042 10.046 37.014 10.13C36.986 10.2047 36.958 10.2887 36.93 10.382C36.902 10.4753 36.8927 10.592 36.902 10.732C36.93 10.9933 36.972 11.264 37.028 11.544C37.084 11.824 37.154 12.188 37.238 12.636C37.3873 13.3267 37.5273 13.98 37.658 14.596C37.798 15.2027 37.924 15.7627 38.036 16.276C38.1573 16.78 38.2647 17.2233 38.358 17.606C38.4513 17.9887 38.526 18.2967 38.582 18.53C38.6847 18.894 38.764 19.188 38.82 19.412C38.8853 19.636 38.918 19.8693 38.918 20.112C38.918 20.2613 38.8713 20.392 38.778 20.504C38.694 20.616 38.5447 20.6767 38.33 20.686C38.19 20.686 38.0547 20.63 37.924 20.518C37.8027 20.4153 37.7 20.28 37.616 20.112C37.532 19.9533 37.4713 19.7947 37.434 19.636C37.4153 19.5427 37.392 19.4027 37.364 19.216C37.3453 19.0293 37.3173 18.81 37.28 18.558C37.252 18.306 37.2147 18.0493 37.168 17.788C37.112 17.4987 37.0467 17.1767 36.972 16.822C36.9067 16.458 36.8367 16.0893 36.762 15.716C36.6873 15.3333 36.6127 14.9647 36.538 14.61C36.4633 14.2553 36.3933 13.9287 36.328 13.63C36.2627 13.3313 36.2067 13.084 36.16 12.888C36.076 12.5427 35.992 12.202 35.908 11.866C35.824 11.5207 35.7447 11.2127 35.67 10.942C35.5953 10.6713 35.53 10.4753 35.474 10.354C35.418 10.242 35.3387 10.158 35.236 10.102C35.1333 10.0367 35.0027 9.98533 34.844 9.948C34.6853 9.90133 34.4893 9.84067 34.256 9.766L34.228 9.528ZM32.114 12.524L32.296 12.426C32.4453 12.5287 32.5713 12.622 32.674 12.706C32.786 12.7807 32.926 12.818 33.094 12.818C33.1873 12.818 33.36 12.7947 33.612 12.748C33.864 12.7013 34.158 12.6407 34.494 12.566C34.83 12.4913 35.1753 12.412 35.53 12.328C35.8847 12.244 36.2067 12.1647 36.496 12.09C36.9067 11.978 37.2707 11.88 37.588 11.796C37.9147 11.7027 38.2087 11.6187 38.47 11.544C38.7687 11.432 38.9973 11.334 39.156 11.25C39.3147 11.1567 39.4267 11.11 39.492 11.11C39.604 11.1007 39.73 11.11 39.87 11.138C40.0193 11.1567 40.164 11.194 40.304 11.25C40.444 11.2967 40.556 11.3573 40.64 11.432C40.7333 11.5067 40.78 11.5907 40.78 11.684C40.78 11.8333 40.7287 11.9593 40.626 12.062C40.5327 12.1647 40.3693 12.2347 40.136 12.272C39.8093 12.3373 39.4267 12.4167 38.988 12.51C38.5587 12.6033 38.1433 12.6967 37.742 12.79C37.3407 12.874 37.014 12.9487 36.762 13.014C36.3607 13.1073 35.9547 13.21 35.544 13.322C35.1333 13.434 34.7787 13.546 34.48 13.658C34.2747 13.7327 34.1113 13.8073 33.99 13.882C33.8687 13.9473 33.7333 13.98 33.584 13.98C33.472 13.98 33.332 13.938 33.164 13.854C32.996 13.77 32.8327 13.6673 32.674 13.546C32.5247 13.4153 32.4127 13.294 32.338 13.182C32.2633 13.0793 32.212 12.9813 32.184 12.888C32.1653 12.7947 32.142 12.6733 32.114 12.524ZM31.456 15.996L31.666 15.87C31.862 16.0193 32.0207 16.1267 32.142 16.192C32.2633 16.2573 32.3847 16.29 32.506 16.29C32.5993 16.29 32.772 16.2667 33.024 16.22C33.276 16.164 33.5793 16.094 33.934 16.01C34.2887 15.926 34.662 15.8373 35.054 15.744C35.446 15.6413 35.8287 15.5433 36.202 15.45C36.5753 15.3567 36.902 15.268 37.182 15.184C37.4807 15.1093 37.798 15.03 38.134 14.946C38.47 14.862 38.8013 14.778 39.128 14.694C39.464 14.6007 39.7627 14.5167 40.024 14.442C40.2947 14.358 40.514 14.288 40.682 14.232C40.8593 14.176 40.9853 14.1247 41.06 14.078C41.1347 14.0313 41.2047 14.008 41.27 14.008C41.522 13.9987 41.76 14.022 41.984 14.078C42.208 14.134 42.39 14.2133 42.53 14.316C42.67 14.4187 42.74 14.5353 42.74 14.666C42.74 14.778 42.7027 14.89 42.628 15.002C42.5533 15.114 42.3993 15.184 42.166 15.212C41.7647 15.2493 41.3867 15.2913 41.032 15.338C40.6867 15.3753 40.332 15.4313 39.968 15.506C39.604 15.5713 39.2073 15.6507 38.778 15.744C38.3487 15.8373 37.8587 15.954 37.308 16.094C36.972 16.178 36.5987 16.2807 36.188 16.402C35.7867 16.5233 35.3993 16.6447 35.026 16.766C34.6527 16.8873 34.3353 17.004 34.074 17.116C33.8313 17.2187 33.6447 17.3167 33.514 17.41C33.3833 17.5033 33.2387 17.5547 33.08 17.564C32.9307 17.564 32.7627 17.522 32.576 17.438C32.3893 17.3447 32.2167 17.242 32.058 17.13C31.8993 17.0087 31.7827 16.8967 31.708 16.794C31.652 16.7007 31.6007 16.5887 31.554 16.458C31.5167 16.3273 31.484 16.1733 31.456 15.996ZM54.934 11.502C54.8033 11.306 54.64 11.0913 54.444 10.858C54.2573 10.6247 54.0053 10.382 53.688 10.13L53.856 9.92C54.2293 10.0413 54.5607 10.1767 54.85 10.326C55.1487 10.4753 55.396 10.6433 55.592 10.83C55.7507 10.9793 55.8627 11.1193 55.928 11.25C55.9933 11.3807 56.026 11.5113 56.026 11.642C56.0167 11.7727 55.97 11.8847 55.886 11.978C55.802 12.062 55.6947 12.104 55.564 12.104C55.4427 12.0947 55.3353 12.034 55.242 11.922C55.158 11.81 55.0553 11.67 54.934 11.502ZM56.18 10.34C56.0493 10.172 55.8953 9.99 55.718 9.794C55.5407 9.598 55.2793 9.36467 54.934 9.094L55.088 8.898C55.4613 9.00067 55.7927 9.11733 56.082 9.248C56.3807 9.36933 56.6187 9.50467 56.796 9.654C56.9827 9.80333 57.1087 9.948 57.174 10.088C57.2487 10.228 57.2813 10.3773 57.272 10.536C57.272 10.6667 57.2347 10.774 57.16 10.858C57.0947 10.9327 56.9967 10.97 56.866 10.97C56.7447 10.97 56.6373 10.9093 56.544 10.788C56.4507 10.6667 56.3293 10.5173 56.18 10.34ZM46.212 10.144C46.38 10.0787 46.5713 10.0087 46.786 9.934C47.01 9.85 47.2107 9.81267 47.388 9.822C47.5747 9.822 47.7613 9.864 47.948 9.948C48.144 10.0227 48.3213 10.1207 48.48 10.242C48.648 10.354 48.7833 10.4753 48.886 10.606C48.998 10.7273 49.054 10.8393 49.054 10.942C49.054 11.054 49.026 11.1473 48.97 11.222C48.914 11.2967 48.858 11.376 48.802 11.46C48.746 11.544 48.7087 11.6607 48.69 11.81C48.662 12.0247 48.6293 12.328 48.592 12.72C48.564 13.1027 48.536 13.5227 48.508 13.98C48.4893 14.4373 48.4707 14.8993 48.452 15.366C48.4333 15.8233 48.4193 16.2433 48.41 16.626C48.4007 16.9993 48.4007 17.2933 48.41 17.508C48.41 17.928 48.452 18.236 48.536 18.432C48.6293 18.628 48.8067 18.754 49.068 18.81C49.3293 18.866 49.7213 18.894 50.244 18.894C50.9533 18.894 51.5553 18.852 52.05 18.768C52.5447 18.684 52.946 18.6047 53.254 18.53C53.562 18.446 53.772 18.404 53.884 18.404C54.3227 18.404 54.6633 18.46 54.906 18.572C55.1487 18.6747 55.27 18.838 55.27 19.062C55.27 19.2673 55.214 19.4213 55.102 19.524C54.9993 19.6267 54.8593 19.706 54.682 19.762C54.458 19.8273 54.1453 19.8927 53.744 19.958C53.352 20.014 52.8807 20.056 52.33 20.084C51.7887 20.1213 51.182 20.14 50.51 20.14C49.8007 20.14 49.2313 20.1027 48.802 20.028C48.382 19.9533 48.0647 19.8227 47.85 19.636C47.6353 19.4493 47.4907 19.188 47.416 18.852C47.3507 18.516 47.3133 18.0913 47.304 17.578C47.2947 17.298 47.29 16.9527 47.29 16.542C47.2993 16.1313 47.3087 15.6973 47.318 15.24C47.3273 14.7733 47.3367 14.3067 47.346 13.84C47.3553 13.3733 47.36 12.9393 47.36 12.538C47.3693 12.1367 47.3693 11.796 47.36 11.516C47.36 11.236 47.346 11.0493 47.318 10.956C47.2807 10.7787 47.1687 10.6527 46.982 10.578C46.8047 10.494 46.5527 10.4147 46.226 10.34L46.212 10.144ZM52.722 11.586L52.89 11.432C53.086 11.46 53.2587 11.502 53.408 11.558C53.5573 11.614 53.702 11.6933 53.842 11.796C54.1033 11.9733 54.318 12.188 54.486 12.44C54.654 12.6827 54.738 12.888 54.738 13.056C54.738 13.2147 54.6493 13.3313 54.472 13.406C54.304 13.4713 54.0847 13.5693 53.814 13.7C53.4127 13.8867 52.918 14.1013 52.33 14.344C51.7513 14.5867 51.098 14.834 50.37 15.086C49.6513 15.3287 48.8767 15.5667 48.046 15.8L47.906 15.282C48.55 15.0393 49.1893 14.7733 49.824 14.484C50.4587 14.1853 51.0373 13.882 51.56 13.574C52.0827 13.266 52.5027 12.9767 52.82 12.706C52.932 12.6033 53.002 12.5147 53.03 12.44C53.058 12.356 53.0487 12.2487 53.002 12.118C52.974 12.0153 52.932 11.9173 52.876 11.824C52.82 11.7213 52.7687 11.642 52.722 11.586Z" fill="#EFA3AF"/>
<rect x="82.5" y="0.5" width="87" height="29" rx="7.5" fill="white"/>
<rect x="82.5" y="0.5" width="87" height="29" rx="7.5" stroke="#EFA3AF"/>
<path d="M108.248 12.72C107.837 12.7573 107.408 12.804 106.96 12.86C106.512 12.9067 106.059 12.958 105.602 13.014C105.145 13.0607 104.72 13.1073 104.328 13.154C103.936 13.2007 103.595 13.238 103.306 13.266C103.026 13.294 102.825 13.308 102.704 13.308C102.508 13.308 102.303 13.2193 102.088 13.042C101.873 12.8647 101.701 12.6827 101.57 12.496C101.486 12.3467 101.411 12.1973 101.346 12.048C101.29 11.8987 101.239 11.7353 101.192 11.558L101.388 11.432C101.649 11.6653 101.892 11.8427 102.116 11.964C102.34 12.0853 102.583 12.146 102.844 12.146C103.021 12.146 103.236 12.1367 103.488 12.118C103.74 12.09 104.006 12.062 104.286 12.034C104.566 11.9967 104.837 11.9593 105.098 11.922C105.369 11.8847 105.602 11.8427 105.798 11.796C106.106 11.7307 106.344 11.6653 106.512 11.6C106.68 11.5253 106.811 11.4647 106.904 11.418C107.007 11.362 107.1 11.334 107.184 11.334C107.343 11.334 107.515 11.3573 107.702 11.404C107.898 11.4413 108.08 11.4973 108.248 11.572C108.416 11.6373 108.551 11.7213 108.654 11.824C108.766 11.9267 108.822 12.034 108.822 12.146C108.822 12.286 108.775 12.412 108.682 12.524C108.589 12.636 108.444 12.7013 108.248 12.72ZM99.134 16.556L99.372 16.458C99.5493 16.6447 99.7313 16.8033 99.918 16.934C100.114 17.0647 100.343 17.13 100.604 17.13C100.763 17.13 101.047 17.116 101.458 17.088C101.869 17.0507 102.349 17.0087 102.9 16.962C103.46 16.906 104.048 16.85 104.664 16.794C105.289 16.7287 105.896 16.6727 106.484 16.626C107.081 16.57 107.609 16.528 108.066 16.5C108.299 16.472 108.486 16.444 108.626 16.416C108.766 16.3787 108.873 16.346 108.948 16.318C109.032 16.29 109.107 16.276 109.172 16.276C109.34 16.276 109.531 16.318 109.746 16.402C109.97 16.486 110.185 16.5933 110.39 16.724C110.595 16.8453 110.763 16.9807 110.894 17.13C111.034 17.27 111.104 17.41 111.104 17.55C111.104 17.718 111.053 17.8533 110.95 17.956C110.857 18.0493 110.721 18.096 110.544 18.096C110.385 18.096 110.152 18.0587 109.844 17.984C109.545 17.9093 109.167 17.8393 108.71 17.774C108.253 17.6993 107.711 17.662 107.086 17.662C106.722 17.662 106.316 17.676 105.868 17.704C105.429 17.732 104.981 17.774 104.524 17.83C104.067 17.8767 103.628 17.9327 103.208 17.998C102.788 18.0633 102.415 18.1427 102.088 18.236C101.78 18.3107 101.519 18.3947 101.304 18.488C101.099 18.572 100.903 18.614 100.716 18.614C100.595 18.614 100.459 18.572 100.31 18.488C100.161 18.3947 100.016 18.2873 99.876 18.166C99.7453 18.0353 99.624 17.9047 99.512 17.774C99.4093 17.634 99.3393 17.5173 99.302 17.424C99.246 17.312 99.204 17.1907 99.176 17.06C99.1573 16.9293 99.1433 16.7613 99.134 16.556ZM116.228 9.528C116.424 9.42533 116.643 9.332 116.886 9.248C117.129 9.164 117.32 9.122 117.46 9.122C117.609 9.122 117.773 9.14533 117.95 9.192C118.127 9.22933 118.295 9.28533 118.454 9.36C118.613 9.42533 118.748 9.50467 118.86 9.598C118.972 9.682 119.033 9.766 119.042 9.85C119.051 9.95267 119.042 10.046 119.014 10.13C118.986 10.2047 118.958 10.2887 118.93 10.382C118.902 10.4753 118.893 10.592 118.902 10.732C118.93 10.9933 118.972 11.264 119.028 11.544C119.084 11.824 119.154 12.188 119.238 12.636C119.387 13.3267 119.527 13.98 119.658 14.596C119.798 15.2027 119.924 15.7627 120.036 16.276C120.157 16.78 120.265 17.2233 120.358 17.606C120.451 17.9887 120.526 18.2967 120.582 18.53C120.685 18.894 120.764 19.188 120.82 19.412C120.885 19.636 120.918 19.8693 120.918 20.112C120.918 20.2613 120.871 20.392 120.778 20.504C120.694 20.616 120.545 20.6767 120.33 20.686C120.19 20.686 120.055 20.63 119.924 20.518C119.803 20.4153 119.7 20.28 119.616 20.112C119.532 19.9533 119.471 19.7947 119.434 19.636C119.415 19.5427 119.392 19.4027 119.364 19.216C119.345 19.0293 119.317 18.81 119.28 18.558C119.252 18.306 119.215 18.0493 119.168 17.788C119.112 17.4987 119.047 17.1767 118.972 16.822C118.907 16.458 118.837 16.0893 118.762 15.716C118.687 15.3333 118.613 14.9647 118.538 14.61C118.463 14.2553 118.393 13.9287 118.328 13.63C118.263 13.3313 118.207 13.084 118.16 12.888C118.076 12.5427 117.992 12.202 117.908 11.866C117.824 11.5207 117.745 11.2127 117.67 10.942C117.595 10.6713 117.53 10.4753 117.474 10.354C117.418 10.242 117.339 10.158 117.236 10.102C117.133 10.0367 117.003 9.98533 116.844 9.948C116.685 9.90133 116.489 9.84067 116.256 9.766L116.228 9.528ZM114.114 12.524L114.296 12.426C114.445 12.5287 114.571 12.622 114.674 12.706C114.786 12.7807 114.926 12.818 115.094 12.818C115.187 12.818 115.36 12.7947 115.612 12.748C115.864 12.7013 116.158 12.6407 116.494 12.566C116.83 12.4913 117.175 12.412 117.53 12.328C117.885 12.244 118.207 12.1647 118.496 12.09C118.907 11.978 119.271 11.88 119.588 11.796C119.915 11.7027 120.209 11.6187 120.47 11.544C120.769 11.432 120.997 11.334 121.156 11.25C121.315 11.1567 121.427 11.11 121.492 11.11C121.604 11.1007 121.73 11.11 121.87 11.138C122.019 11.1567 122.164 11.194 122.304 11.25C122.444 11.2967 122.556 11.3573 122.64 11.432C122.733 11.5067 122.78 11.5907 122.78 11.684C122.78 11.8333 122.729 11.9593 122.626 12.062C122.533 12.1647 122.369 12.2347 122.136 12.272C121.809 12.3373 121.427 12.4167 120.988 12.51C120.559 12.6033 120.143 12.6967 119.742 12.79C119.341 12.874 119.014 12.9487 118.762 13.014C118.361 13.1073 117.955 13.21 117.544 13.322C117.133 13.434 116.779 13.546 116.48 13.658C116.275 13.7327 116.111 13.8073 115.99 13.882C115.869 13.9473 115.733 13.98 115.584 13.98C115.472 13.98 115.332 13.938 115.164 13.854C114.996 13.77 114.833 13.6673 114.674 13.546C114.525 13.4153 114.413 13.294 114.338 13.182C114.263 13.0793 114.212 12.9813 114.184 12.888C114.165 12.7947 114.142 12.6733 114.114 12.524ZM113.456 15.996L113.666 15.87C113.862 16.0193 114.021 16.1267 114.142 16.192C114.263 16.2573 114.385 16.29 114.506 16.29C114.599 16.29 114.772 16.2667 115.024 16.22C115.276 16.164 115.579 16.094 115.934 16.01C116.289 15.926 116.662 15.8373 117.054 15.744C117.446 15.6413 117.829 15.5433 118.202 15.45C118.575 15.3567 118.902 15.268 119.182 15.184C119.481 15.1093 119.798 15.03 120.134 14.946C120.47 14.862 120.801 14.778 121.128 14.694C121.464 14.6007 121.763 14.5167 122.024 14.442C122.295 14.358 122.514 14.288 122.682 14.232C122.859 14.176 122.985 14.1247 123.06 14.078C123.135 14.0313 123.205 14.008 123.27 14.008C123.522 13.9987 123.76 14.022 123.984 14.078C124.208 14.134 124.39 14.2133 124.53 14.316C124.67 14.4187 124.74 14.5353 124.74 14.666C124.74 14.778 124.703 14.89 124.628 15.002C124.553 15.114 124.399 15.184 124.166 15.212C123.765 15.2493 123.387 15.2913 123.032 15.338C122.687 15.3753 122.332 15.4313 121.968 15.506C121.604 15.5713 121.207 15.6507 120.778 15.744C120.349 15.8373 119.859 15.954 119.308 16.094C118.972 16.178 118.599 16.2807 118.188 16.402C117.787 16.5233 117.399 16.6447 117.026 16.766C116.653 16.8873 116.335 17.004 116.074 17.116C115.831 17.2187 115.645 17.3167 115.514 17.41C115.383 17.5033 115.239 17.5547 115.08 17.564C114.931 17.564 114.763 17.522 114.576 17.438C114.389 17.3447 114.217 17.242 114.058 17.13C113.899 17.0087 113.783 16.8967 113.708 16.794C113.652 16.7007 113.601 16.5887 113.554 16.458C113.517 16.3273 113.484 16.1733 113.456 15.996ZM136.934 11.502C136.803 11.306 136.64 11.0913 136.444 10.858C136.257 10.6247 136.005 10.382 135.688 10.13L135.856 9.92C136.229 10.0413 136.561 10.1767 136.85 10.326C137.149 10.4753 137.396 10.6433 137.592 10.83C137.751 10.9793 137.863 11.1193 137.928 11.25C137.993 11.3807 138.026 11.5113 138.026 11.642C138.017 11.7727 137.97 11.8847 137.886 11.978C137.802 12.062 137.695 12.104 137.564 12.104C137.443 12.0947 137.335 12.034 137.242 11.922C137.158 11.81 137.055 11.67 136.934 11.502ZM138.18 10.34C138.049 10.172 137.895 9.99 137.718 9.794C137.541 9.598 137.279 9.36467 136.934 9.094L137.088 8.898C137.461 9.00067 137.793 9.11733 138.082 9.248C138.381 9.36933 138.619 9.50467 138.796 9.654C138.983 9.80333 139.109 9.948 139.174 10.088C139.249 10.228 139.281 10.3773 139.272 10.536C139.272 10.6667 139.235 10.774 139.16 10.858C139.095 10.9327 138.997 10.97 138.866 10.97C138.745 10.97 138.637 10.9093 138.544 10.788C138.451 10.6667 138.329 10.5173 138.18 10.34ZM128.212 10.144C128.38 10.0787 128.571 10.0087 128.786 9.934C129.01 9.85 129.211 9.81267 129.388 9.822C129.575 9.822 129.761 9.864 129.948 9.948C130.144 10.0227 130.321 10.1207 130.48 10.242C130.648 10.354 130.783 10.4753 130.886 10.606C130.998 10.7273 131.054 10.8393 131.054 10.942C131.054 11.054 131.026 11.1473 130.97 11.222C130.914 11.2967 130.858 11.376 130.802 11.46C130.746 11.544 130.709 11.6607 130.69 11.81C130.662 12.0247 130.629 12.328 130.592 12.72C130.564 13.1027 130.536 13.5227 130.508 13.98C130.489 14.4373 130.471 14.8993 130.452 15.366C130.433 15.8233 130.419 16.2433 130.41 16.626C130.401 16.9993 130.401 17.2933 130.41 17.508C130.41 17.928 130.452 18.236 130.536 18.432C130.629 18.628 130.807 18.754 131.068 18.81C131.329 18.866 131.721 18.894 132.244 18.894C132.953 18.894 133.555 18.852 134.05 18.768C134.545 18.684 134.946 18.6047 135.254 18.53C135.562 18.446 135.772 18.404 135.884 18.404C136.323 18.404 136.663 18.46 136.906 18.572C137.149 18.6747 137.27 18.838 137.27 19.062C137.27 19.2673 137.214 19.4213 137.102 19.524C136.999 19.6267 136.859 19.706 136.682 19.762C136.458 19.8273 136.145 19.8927 135.744 19.958C135.352 20.014 134.881 20.056 134.33 20.084C133.789 20.1213 133.182 20.14 132.51 20.14C131.801 20.14 131.231 20.1027 130.802 20.028C130.382 19.9533 130.065 19.8227 129.85 19.636C129.635 19.4493 129.491 19.188 129.416 18.852C129.351 18.516 129.313 18.0913 129.304 17.578C129.295 17.298 129.29 16.9527 129.29 16.542C129.299 16.1313 129.309 15.6973 129.318 15.24C129.327 14.7733 129.337 14.3067 129.346 13.84C129.355 13.3733 129.36 12.9393 129.36 12.538C129.369 12.1367 129.369 11.796 129.36 11.516C129.36 11.236 129.346 11.0493 129.318 10.956C129.281 10.7787 129.169 10.6527 128.982 10.578C128.805 10.494 128.553 10.4147 128.226 10.34L128.212 10.144ZM134.722 11.586L134.89 11.432C135.086 11.46 135.259 11.502 135.408 11.558C135.557 11.614 135.702 11.6933 135.842 11.796C136.103 11.9733 136.318 12.188 136.486 12.44C136.654 12.6827 136.738 12.888 136.738 13.056C136.738 13.2147 136.649 13.3313 136.472 13.406C136.304 13.4713 136.085 13.5693 135.814 13.7C135.413 13.8867 134.918 14.1013 134.33 14.344C133.751 14.5867 133.098 14.834 132.37 15.086C131.651 15.3287 130.877 15.5667 130.046 15.8L129.906 15.282C130.55 15.0393 131.189 14.7733 131.824 14.484C132.459 14.1853 133.037 13.882 133.56 13.574C134.083 13.266 134.503 12.9767 134.82 12.706C134.932 12.6033 135.002 12.5147 135.03 12.44C135.058 12.356 135.049 12.2487 135.002 12.118C134.974 12.0153 134.932 11.9173 134.876 11.824C134.82 11.7213 134.769 11.642 134.722 11.586ZM145.32 11.684V11.11L146.664 11.684H150.976V12.09H146.594V19.37C146.594 19.4167 146.543 19.4773 146.44 19.552C146.337 19.6173 146.202 19.678 146.034 19.734C145.875 19.79 145.703 19.818 145.516 19.818H145.32V11.684ZM150.57 11.684H150.444L151.06 10.998L152.418 12.02C152.381 12.0667 152.311 12.118 152.208 12.174C152.115 12.2207 152.007 12.258 151.886 12.286V16.178C151.877 16.206 151.807 16.2433 151.676 16.29C151.555 16.3273 151.41 16.3647 151.242 16.402C151.083 16.4393 150.929 16.458 150.78 16.458H150.57V11.684ZM146.16 13.658H151.032V14.064H146.16V13.658ZM146.132 15.632H151.074V16.024H146.132V15.632ZM143.5 19.678C143.836 19.65 144.303 19.594 144.9 19.51C145.507 19.4167 146.188 19.3093 146.944 19.188C147.7 19.0573 148.479 18.9267 149.282 18.796L149.324 18.992C148.801 19.216 148.157 19.4913 147.392 19.818C146.627 20.1353 145.703 20.4947 144.62 20.896C144.545 21.0733 144.429 21.1853 144.27 21.232L143.5 19.678ZM148.232 15.66C148.521 16.3693 148.927 16.9947 149.45 17.536C149.982 18.0773 150.603 18.5253 151.312 18.88C152.031 19.2253 152.81 19.468 153.65 19.608V19.776C153.398 19.8413 153.179 19.9813 152.992 20.196C152.805 20.4107 152.675 20.686 152.6 21.022C151.779 20.7327 151.069 20.3547 150.472 19.888C149.875 19.4213 149.38 18.8473 148.988 18.166C148.596 17.4753 148.279 16.668 148.036 15.744L148.232 15.66ZM152.124 16.038L153.454 17.172C153.361 17.284 153.207 17.298 152.992 17.214C152.768 17.298 152.474 17.4053 152.11 17.536C151.746 17.6573 151.354 17.774 150.934 17.886C150.523 17.998 150.117 18.0867 149.716 18.152L149.646 18.012C149.935 17.8347 150.239 17.6247 150.556 17.382C150.873 17.1393 151.172 16.8967 151.452 16.654C151.732 16.4113 151.956 16.206 152.124 16.038ZM147.084 8.184L149.016 8.324C149.007 8.42667 148.965 8.51067 148.89 8.576C148.825 8.64133 148.694 8.69267 148.498 8.73V10.13H147.084V8.184ZM143.444 10.004H151.312L152.096 9.01C152.096 9.01 152.143 9.04733 152.236 9.122C152.329 9.19667 152.446 9.29467 152.586 9.416C152.735 9.528 152.889 9.654 153.048 9.794C153.216 9.92467 153.365 10.0553 153.496 10.186C153.459 10.326 153.333 10.396 153.118 10.396H143.444V10.004ZM142.828 10.004V9.864V9.332L144.34 10.004H144.116V13.364C144.116 13.868 144.097 14.3953 144.06 14.946C144.023 15.4967 143.943 16.052 143.822 16.612C143.701 17.172 143.514 17.7227 143.262 18.264C143.01 18.8053 142.674 19.3233 142.254 19.818C141.843 20.3127 141.321 20.7653 140.686 21.176L140.518 21.036C141.19 20.2987 141.689 19.51 142.016 18.67C142.352 17.8207 142.571 16.948 142.674 16.052C142.777 15.156 142.828 14.2647 142.828 13.378V10.004ZM140.882 10.69C141.33 10.9513 141.675 11.2267 141.918 11.516C142.17 11.796 142.338 12.0713 142.422 12.342C142.515 12.6033 142.543 12.8367 142.506 13.042C142.478 13.2473 142.408 13.4107 142.296 13.532C142.184 13.6533 142.049 13.714 141.89 13.714C141.731 13.7047 141.573 13.6207 141.414 13.462C141.423 13.1633 141.395 12.8553 141.33 12.538C141.265 12.2113 141.176 11.894 141.064 11.586C140.961 11.278 140.84 11.0027 140.7 10.76L140.882 10.69ZM140.294 15.87C140.453 15.7953 140.677 15.6787 140.966 15.52C141.255 15.3613 141.582 15.1793 141.946 14.974C142.319 14.7593 142.693 14.54 143.066 14.316L143.15 14.456C142.945 14.7173 142.683 15.0673 142.366 15.506C142.058 15.9447 141.694 16.4253 141.274 16.948C141.265 17.0227 141.237 17.1067 141.19 17.2C141.153 17.284 141.097 17.3493 141.022 17.396L140.294 15.87Z" fill="#EFA3AF"/>
<rect x="0.5" y="38.5" width="59" height="29" rx="7.5" fill="white"/>
<rect x="0.5" y="38.5" width="59" height="29" rx="7.5" stroke="#EFA3AF"/>
<path d="M21.838 52.022H27.508L28.292 50.958C28.292 50.958 28.3387 51 28.432 51.084C28.5253 51.168 28.6467 51.2753 28.796 51.406C28.9453 51.5273 29.0993 51.658 29.258 51.798C29.4167 51.938 29.5613 52.0733 29.692 52.204C29.664 52.3533 29.5427 52.428 29.328 52.428H21.95L21.838 52.022ZM22.286 47.29H27.172L27.942 46.282C27.942 46.282 27.9887 46.3193 28.082 46.394C28.1753 46.4687 28.292 46.5713 28.432 46.702C28.5813 46.8233 28.7353 46.954 28.894 47.094C29.062 47.2247 29.2113 47.3507 29.342 47.472C29.3047 47.6213 29.1787 47.696 28.964 47.696H22.398L22.286 47.29ZM24.792 47.36H26.122V58.812C26.122 58.8587 26.024 58.9333 25.828 59.036C25.632 59.148 25.3613 59.204 25.016 59.204H24.792V47.36ZM17.4 47.038V46.898V46.478L18.856 47.038H18.646V51.35C18.646 51.966 18.6273 52.6193 18.59 53.31C18.562 53.9913 18.4827 54.682 18.352 55.382C18.2307 56.0727 18.0253 56.7447 17.736 57.398C17.4467 58.0513 17.0453 58.6487 16.532 59.19L16.35 59.078C16.6953 58.322 16.938 57.5147 17.078 56.656C17.2273 55.7973 17.316 54.9153 17.344 54.01C17.3813 53.1047 17.4 52.218 17.4 51.35V47.038ZM18.072 47.038H20.83V47.43H18.072V47.038ZM18.072 50.202H20.83V50.608H18.072V50.202ZM18.072 53.492H20.83V53.898H18.072V53.492ZM20.34 47.038H20.2L20.802 46.338L22.132 47.374C22.0387 47.4767 21.8613 47.5607 21.6 47.626V57.538C21.6 57.8553 21.5627 58.126 21.488 58.35C21.4227 58.5833 21.2733 58.7653 21.04 58.896C20.8067 59.036 20.438 59.1293 19.934 59.176C19.9247 58.9707 19.9013 58.784 19.864 58.616C19.8267 58.4573 19.766 58.3313 19.682 58.238C19.598 58.1353 19.4767 58.0513 19.318 57.986C19.1687 57.9113 18.954 57.8507 18.674 57.804V57.594C18.674 57.594 18.73 57.5987 18.842 57.608C18.9633 57.6173 19.1033 57.6313 19.262 57.65C19.43 57.6593 19.584 57.6687 19.724 57.678C19.8733 57.678 19.9807 57.678 20.046 57.678C20.158 57.678 20.2327 57.6547 20.27 57.608C20.3167 57.5613 20.34 57.4913 20.34 57.398V47.038ZM34.144 49.152H37.574L38.246 48.186C38.246 48.186 38.316 48.2513 38.456 48.382C38.596 48.5033 38.7593 48.6527 38.946 48.83C39.142 48.998 39.3147 49.1613 39.464 49.32C39.4267 49.4693 39.3053 49.544 39.1 49.544H34.242L34.144 49.152ZM38.232 47.57H41.354L42.11 46.534C42.11 46.534 42.1567 46.576 42.25 46.66C42.3527 46.7347 42.474 46.8373 42.614 46.968C42.7633 47.0893 42.9173 47.22 43.076 47.36C43.2347 47.4907 43.3793 47.6213 43.51 47.752C43.482 47.9013 43.356 47.976 43.132 47.976H38.344L38.232 47.57ZM38.33 52.484H41.648L42.25 51.49C42.25 51.49 42.3153 51.5553 42.446 51.686C42.5767 51.8167 42.726 51.9753 42.894 52.162C43.062 52.3393 43.2113 52.5073 43.342 52.666C43.3047 52.8153 43.1833 52.89 42.978 52.89H38.442L38.33 52.484ZM37.252 58.21H41.704L42.39 57.062C42.39 57.062 42.432 57.1087 42.516 57.202C42.6 57.286 42.7073 57.398 42.838 57.538C42.9687 57.6687 43.0993 57.8133 43.23 57.972C43.3607 58.1213 43.4773 58.2613 43.58 58.392C43.552 58.5413 43.4307 58.616 43.216 58.616H37.364L37.252 58.21ZM40.024 47.57H41.326V58.434H40.024V47.57ZM35.936 46.212L37.714 46.366C37.7047 46.4593 37.6627 46.5433 37.588 46.618C37.5133 46.6833 37.3873 46.73 37.21 46.758V49.292H35.936V46.212ZM34.718 50.65C35.558 51.2753 36.244 51.8867 36.776 52.484C37.3173 53.0813 37.7327 53.6413 38.022 54.164C38.3113 54.6867 38.4933 55.1487 38.568 55.55C38.652 55.9513 38.6567 56.2733 38.582 56.516C38.5167 56.7587 38.3953 56.9033 38.218 56.95C38.0407 56.9967 37.8307 56.922 37.588 56.726C37.504 56.2593 37.35 55.7647 37.126 55.242C36.902 54.7193 36.6453 54.192 36.356 53.66C36.0667 53.128 35.7587 52.6147 35.432 52.12C35.1147 51.616 34.8113 51.1587 34.522 50.748L34.718 50.65ZM30.476 47.556H33.178L33.892 46.562C33.892 46.562 33.934 46.604 34.018 46.688C34.1113 46.7627 34.228 46.8607 34.368 46.982C34.508 47.094 34.6527 47.22 34.802 47.36C34.9513 47.4907 35.0867 47.6167 35.208 47.738C35.1707 47.8873 35.0447 47.962 34.83 47.962H30.588L30.476 47.556ZM30.56 51.63H33.416L33.99 50.762C33.99 50.762 34.046 50.818 34.158 50.93C34.2793 51.042 34.4193 51.182 34.578 51.35C34.746 51.5087 34.8907 51.6627 35.012 51.812C34.9747 51.952 34.8533 52.022 34.648 52.022H30.672L30.56 51.63ZM31.974 47.626H33.248V56.11L31.974 56.488V47.626ZM30.35 56.656C30.6393 56.572 31.0267 56.446 31.512 56.278C31.9973 56.1007 32.5387 55.8907 33.136 55.648C33.7333 55.4053 34.3307 55.1533 34.928 54.892L34.998 55.06C34.5873 55.3867 34.088 55.7833 33.5 56.25C32.9213 56.7167 32.2307 57.2207 31.428 57.762C31.4 57.958 31.3067 58.0933 31.148 58.168L30.35 56.656ZM37.028 49.306H38.344C38.232 50.3233 38.0547 51.308 37.812 52.26C37.5787 53.2027 37.252 54.094 36.832 54.934C36.4213 55.774 35.8987 56.5533 35.264 57.272C34.6293 57.9813 33.8593 58.6207 32.954 59.19L32.814 59.036C33.766 58.196 34.536 57.2627 35.124 56.236C35.712 55.2093 36.1553 54.1127 36.454 52.946C36.762 51.77 36.9533 50.5567 37.028 49.306Z" fill="#EFA3AF"/>
<rect x="68.5" y="38.5" width="87" height="29" rx="7.5" fill="white"/>
<rect x="68.5" y="38.5" width="87" height="29" rx="7.5" stroke="#EFA3AF"/>
<path d="M87.5 52.414H92.708L93.394 51.56C93.394 51.56 93.464 51.616 93.604 51.728C93.744 51.84 93.9073 51.9753 94.094 52.134C94.29 52.2927 94.4627 52.4467 94.612 52.596C94.584 52.7453 94.4627 52.82 94.248 52.82H87.612L87.5 52.414ZM87.192 54.822H93.058L93.702 53.954C93.702 53.954 93.7673 54.01 93.898 54.122C94.038 54.234 94.1967 54.374 94.374 54.542C94.5607 54.7007 94.724 54.8547 94.864 55.004C94.836 55.1533 94.7147 55.228 94.5 55.228H87.29L87.192 54.822ZM91.672 52.414H92.834V58.238C92.834 58.2753 92.7453 58.3313 92.568 58.406C92.4 58.49 92.1713 58.532 91.882 58.532H91.672V52.414ZM89.054 52.414H90.202V54.346C90.202 54.7007 90.1693 55.074 90.104 55.466C90.048 55.8487 89.9313 56.2313 89.754 56.614C89.5767 56.9967 89.306 57.3653 88.942 57.72C88.578 58.0653 88.0833 58.3733 87.458 58.644L87.332 58.49C87.8453 58.0793 88.2233 57.6453 88.466 57.188C88.7087 56.7213 88.8673 56.2453 88.942 55.76C89.0167 55.2747 89.054 54.8033 89.054 54.346V52.414ZM85.246 47.192V46.576L86.604 47.192H89.474V47.584H86.534V58.672C86.534 58.728 86.4827 58.7933 86.38 58.868C86.2867 58.952 86.1607 59.022 86.002 59.078C85.8433 59.1433 85.666 59.176 85.47 59.176H85.246V47.192ZM91.672 47.192V46.632L92.988 47.192H95.998V47.584H92.918V51.154C92.918 51.1913 92.862 51.2427 92.75 51.308C92.6473 51.3733 92.5167 51.434 92.358 51.49C92.1993 51.5367 92.0313 51.56 91.854 51.56H91.672V47.192ZM95.424 47.192H95.284L95.9 46.436L97.314 47.528C97.2673 47.584 97.1927 47.64 97.09 47.696C96.9873 47.752 96.866 47.7893 96.726 47.808V57.538C96.726 57.8553 96.6887 58.126 96.614 58.35C96.5487 58.5833 96.3947 58.7653 96.152 58.896C95.9187 59.036 95.5547 59.1293 95.06 59.176C95.0413 58.9613 95.0133 58.7747 94.976 58.616C94.9387 58.4573 94.8827 58.3313 94.808 58.238C94.7147 58.1353 94.5933 58.0513 94.444 57.986C94.304 57.9113 94.0987 57.846 93.828 57.79V57.594C93.828 57.594 93.884 57.5987 93.996 57.608C94.108 57.608 94.2433 57.6173 94.402 57.636C94.5607 57.6453 94.71 57.6547 94.85 57.664C94.99 57.664 95.088 57.664 95.144 57.664C95.256 57.664 95.3307 57.6453 95.368 57.608C95.4053 57.5613 95.424 57.4913 95.424 57.398V47.192ZM88.928 47.192H88.788L89.404 46.534L90.678 47.5C90.6407 47.5467 90.5753 47.598 90.482 47.654C90.3887 47.7007 90.2813 47.738 90.16 47.766V51.238C90.16 51.2753 90.0993 51.3267 89.978 51.392C89.866 51.448 89.7307 51.504 89.572 51.56C89.4227 51.6067 89.278 51.63 89.138 51.63H88.928V47.192ZM85.904 48.872H89.446V49.264H85.904V48.872ZM85.904 50.594H89.446V51H85.904V50.594ZM92.33 48.872H95.942V49.264H92.33V48.872ZM92.33 50.594H95.942V51H92.33V50.594ZM100.52 48.564C100.763 48.732 100.982 48.872 101.178 48.984C101.383 49.0867 101.603 49.1613 101.836 49.208C102.069 49.2547 102.354 49.278 102.69 49.278C102.933 49.278 103.217 49.2547 103.544 49.208C103.88 49.152 104.221 49.0867 104.566 49.012C104.911 48.9373 105.215 48.858 105.476 48.774C105.943 48.634 106.316 48.4987 106.596 48.368C106.885 48.228 107.105 48.1113 107.254 48.018C107.403 47.9153 107.511 47.864 107.576 47.864C107.725 47.864 107.87 47.878 108.01 47.906C108.159 47.934 108.285 47.9807 108.388 48.046C108.491 48.1113 108.542 48.214 108.542 48.354C108.542 48.438 108.514 48.5267 108.458 48.62C108.402 48.704 108.309 48.788 108.178 48.872C108.01 48.9933 107.735 49.1333 107.352 49.292C106.969 49.4413 106.526 49.586 106.022 49.726C105.518 49.866 104.991 49.9873 104.44 50.09C103.899 50.1833 103.376 50.23 102.872 50.23C102.48 50.23 102.135 50.1927 101.836 50.118C101.537 50.034 101.267 49.8847 101.024 49.67C100.781 49.446 100.553 49.1193 100.338 48.69L100.52 48.564ZM102.032 50.678C101.668 51.0607 101.547 51.3687 101.668 51.602C101.789 51.8353 102.191 51.952 102.872 51.952C103.367 51.952 103.857 51.9147 104.342 51.84C104.837 51.756 105.322 51.6487 105.798 51.518C106.283 51.3873 106.745 51.238 107.184 51.07C107.595 50.93 107.907 50.8087 108.122 50.706C108.346 50.594 108.509 50.51 108.612 50.454C108.724 50.3887 108.803 50.356 108.85 50.356C109.009 50.3373 109.158 50.342 109.298 50.37C109.447 50.3887 109.569 50.4353 109.662 50.51C109.765 50.5847 109.816 50.6967 109.816 50.846C109.816 50.9393 109.793 51.0327 109.746 51.126C109.699 51.2193 109.601 51.3127 109.452 51.406C109.153 51.5833 108.771 51.7653 108.304 51.952C107.847 52.1293 107.324 52.2973 106.736 52.456C106.148 52.6053 105.523 52.7267 104.86 52.82C104.197 52.9133 103.516 52.96 102.816 52.96C102.331 52.96 101.929 52.89 101.612 52.75C101.295 52.6007 101.08 52.4047 100.968 52.162C100.865 51.9193 100.879 51.6533 101.01 51.364C101.141 51.0653 101.411 50.776 101.822 50.496L102.032 50.678ZM104.692 54.178C105.243 54.178 105.756 54.22 106.232 54.304C106.717 54.3787 107.105 54.4487 107.394 54.514C107.487 54.542 107.539 54.5467 107.548 54.528C107.557 54.5 107.543 54.4533 107.506 54.388C107.357 54.1733 107.133 53.856 106.834 53.436C106.535 53.0067 106.237 52.4887 105.938 51.882C105.761 51.5367 105.574 51.1493 105.378 50.72C105.191 50.2907 105.005 49.852 104.818 49.404C104.641 48.956 104.477 48.5267 104.328 48.116C104.263 47.9387 104.183 47.8127 104.09 47.738C104.006 47.654 103.857 47.5933 103.642 47.556C103.521 47.5373 103.385 47.5233 103.236 47.514C103.096 47.4953 102.951 47.486 102.802 47.486L102.76 47.262C102.965 47.1033 103.175 46.982 103.39 46.898C103.605 46.8047 103.838 46.758 104.09 46.758C104.426 46.758 104.715 46.8 104.958 46.884C105.201 46.968 105.336 47.1267 105.364 47.36C105.392 47.5093 105.42 47.6867 105.448 47.892C105.485 48.0973 105.527 48.312 105.574 48.536C105.621 48.7507 105.672 48.956 105.728 49.152C105.831 49.4507 105.929 49.7353 106.022 50.006C106.125 50.2673 106.241 50.538 106.372 50.818C106.503 51.0887 106.652 51.3827 106.82 51.7C107.128 52.26 107.417 52.7173 107.688 53.072C107.968 53.4267 108.211 53.7113 108.416 53.926C108.631 54.1407 108.794 54.318 108.906 54.458C109.027 54.598 109.088 54.7333 109.088 54.864C109.088 55.0507 109.055 55.2373 108.99 55.424C108.925 55.6107 108.836 55.7647 108.724 55.886C108.612 55.998 108.486 56.054 108.346 56.054C108.215 56.054 108.094 56.026 107.982 55.97C107.87 55.914 107.739 55.8347 107.59 55.732C107.45 55.62 107.263 55.5033 107.03 55.382C106.862 55.2887 106.638 55.1953 106.358 55.102C106.078 54.9993 105.765 54.9153 105.42 54.85C105.075 54.7753 104.711 54.738 104.328 54.738C103.852 54.738 103.432 54.8033 103.068 54.934C102.713 55.0553 102.433 55.228 102.228 55.452C102.023 55.6667 101.92 55.9187 101.92 56.208C101.92 56.488 102.004 56.7167 102.172 56.894C102.349 57.0713 102.573 57.2113 102.844 57.314C103.124 57.4073 103.423 57.4727 103.74 57.51C104.067 57.538 104.384 57.552 104.692 57.552C104.991 57.552 105.233 57.5473 105.42 57.538C105.607 57.5193 105.77 57.5007 105.91 57.482C106.05 57.454 106.185 57.4307 106.316 57.412C106.447 57.3933 106.596 57.384 106.764 57.384C107.025 57.384 107.249 57.4353 107.436 57.538C107.623 57.6407 107.716 57.7947 107.716 58C107.716 58.1493 107.646 58.2707 107.506 58.364C107.366 58.4667 107.165 58.5507 106.904 58.616C106.652 58.6813 106.353 58.728 106.008 58.756C105.663 58.784 105.285 58.798 104.874 58.798C104.379 58.798 103.899 58.7513 103.432 58.658C102.965 58.5647 102.55 58.4247 102.186 58.238C101.822 58.0513 101.533 57.8133 101.318 57.524C101.113 57.2347 101.01 56.8893 101.01 56.488C101.01 56.0867 101.145 55.7087 101.416 55.354C101.687 54.9993 102.093 54.7147 102.634 54.5C103.185 54.2853 103.871 54.178 104.692 54.178ZM119.112 48.158C119.112 48.2607 119.112 48.3633 119.112 48.466C119.112 48.5593 119.112 48.6387 119.112 48.704V56.908C119.112 57.104 119.168 57.244 119.28 57.328C119.401 57.4027 119.644 57.44 120.008 57.44H121.926C122.309 57.44 122.64 57.4353 122.92 57.426C123.209 57.4167 123.429 57.4073 123.578 57.398C123.699 57.3793 123.793 57.356 123.858 57.328C123.923 57.3 123.984 57.244 124.04 57.16C124.133 57.02 124.236 56.7587 124.348 56.376C124.469 55.984 124.605 55.5173 124.754 54.976H124.908L124.964 57.244C125.207 57.328 125.37 57.4167 125.454 57.51C125.538 57.594 125.58 57.7107 125.58 57.86C125.58 58.028 125.529 58.168 125.426 58.28C125.323 58.392 125.137 58.4807 124.866 58.546C124.595 58.6207 124.213 58.672 123.718 58.7C123.223 58.7373 122.589 58.756 121.814 58.756H119.854C119.313 58.756 118.883 58.714 118.566 58.63C118.258 58.546 118.034 58.3967 117.894 58.182C117.754 57.9673 117.684 57.6593 117.684 57.258V48.158H119.112ZM123.984 47.486C123.919 47.5513 123.816 47.5887 123.676 47.598C123.536 47.6073 123.359 47.57 123.144 47.486C122.509 47.6727 121.791 47.8593 120.988 48.046C120.185 48.2327 119.331 48.4053 118.426 48.564C117.53 48.7133 116.615 48.8487 115.682 48.97C114.749 49.0913 113.829 49.18 112.924 49.236L112.868 49.012C113.727 48.872 114.613 48.6947 115.528 48.48C116.443 48.2653 117.339 48.0367 118.216 47.794C119.093 47.542 119.901 47.2807 120.638 47.01C121.385 46.7393 122.024 46.478 122.556 46.226L123.984 47.486ZM123.788 52.162C123.788 52.162 123.849 52.1993 123.97 52.274C124.091 52.3393 124.245 52.428 124.432 52.54C124.628 52.6427 124.829 52.7593 125.034 52.89C125.249 53.0207 125.445 53.142 125.622 53.254C125.613 53.338 125.575 53.4033 125.51 53.45C125.445 53.4967 125.361 53.5247 125.258 53.534L112.588 55.046L112.42 54.668L123.004 53.408L123.788 52.162ZM122.402 49.376C122.402 49.376 122.458 49.4087 122.57 49.474C122.691 49.5393 122.845 49.628 123.032 49.74C123.219 49.8427 123.415 49.9593 123.62 50.09C123.825 50.2113 124.017 50.328 124.194 50.44C124.166 50.608 124.045 50.7013 123.83 50.72L113.47 52.036L113.302 51.658L121.632 50.608L122.402 49.376ZM130.844 50.944L132.846 51.434C132.827 51.5273 132.776 51.602 132.692 51.658C132.608 51.714 132.482 51.7467 132.314 51.756C131.978 53.0627 131.544 54.192 131.012 55.144C130.48 56.0867 129.845 56.8847 129.108 57.538C128.38 58.1913 127.545 58.7327 126.602 59.162L126.462 59.008C127.199 58.448 127.867 57.776 128.464 56.992C129.061 56.208 129.565 55.312 129.976 54.304C130.387 53.296 130.676 52.176 130.844 50.944ZM128.408 48.802H138.222V49.194H128.408V48.802ZM132.3 46.198L134.204 46.366C134.195 46.4593 134.148 46.5387 134.064 46.604C133.989 46.6693 133.863 46.716 133.686 46.744V48.97H132.3V46.198ZM128.296 47.92H128.506C128.702 48.4893 128.795 48.998 128.786 49.446C128.777 49.894 128.702 50.272 128.562 50.58C128.431 50.888 128.263 51.1213 128.058 51.28C127.927 51.392 127.773 51.462 127.596 51.49C127.419 51.518 127.251 51.4993 127.092 51.434C126.943 51.3687 126.835 51.2567 126.77 51.098C126.677 50.8833 126.677 50.6873 126.77 50.51C126.873 50.3233 127.022 50.1693 127.218 50.048C127.395 49.936 127.568 49.7727 127.736 49.558C127.904 49.334 128.039 49.082 128.142 48.802C128.254 48.522 128.305 48.228 128.296 47.92ZM137.522 48.802H137.354L138.138 48.032L139.496 49.32C139.44 49.376 139.37 49.4133 139.286 49.432C139.202 49.4507 139.085 49.4647 138.936 49.474C138.768 49.6793 138.553 49.8987 138.292 50.132C138.04 50.3653 137.779 50.594 137.508 50.818C137.237 51.0327 136.981 51.2193 136.738 51.378L136.598 51.28C136.71 51.0467 136.822 50.7807 136.934 50.482C137.055 50.1833 137.167 49.8847 137.27 49.586C137.382 49.278 137.466 49.0167 137.522 48.802ZM134.428 51C134.68 52.0827 135.058 53.0533 135.562 53.912C136.075 54.7613 136.673 55.4987 137.354 56.124C138.045 56.74 138.782 57.2487 139.566 57.65L139.538 57.818C139.202 57.93 138.927 58.1027 138.712 58.336C138.497 58.5693 138.362 58.8447 138.306 59.162C137.569 58.6113 136.925 57.9347 136.374 57.132C135.833 56.3293 135.375 55.424 135.002 54.416C134.638 53.408 134.358 52.3113 134.162 51.126L134.428 51Z" fill="#EFA3AF"/>
<rect x="0.5" y="76.5" width="154" height="29" rx="7.5" fill="white"/>
<rect x="0.5" y="76.5" width="154" height="29" rx="7.5" stroke="#EFA3AF"/>
<path d="M17.022 89.042C17.1433 89.182 17.2833 89.308 17.442 89.42C17.61 89.5227 17.778 89.574 17.946 89.574C18.03 89.574 18.1093 89.5693 18.184 89.56C18.268 89.5413 18.3707 89.5087 18.492 89.462C18.6227 89.406 18.7813 89.3313 18.968 89.238C19.3507 89.0607 19.766 88.86 20.214 88.636C20.6713 88.412 21.1473 88.1927 21.642 87.978C22.146 87.7633 22.664 87.586 23.196 87.446C23.7373 87.306 24.2833 87.236 24.834 87.236C25.478 87.236 26.0473 87.334 26.542 87.53C27.046 87.7167 27.4707 87.9733 27.816 88.3C28.1613 88.6267 28.4227 89 28.6 89.42C28.7773 89.84 28.866 90.274 28.866 90.722C28.866 91.338 28.754 91.884 28.53 92.36C28.306 92.8267 28.0027 93.2327 27.62 93.578C27.2373 93.9233 26.7987 94.2173 26.304 94.46C25.9493 94.6373 25.548 94.7867 25.1 94.908C24.652 95.0293 24.1713 95.1227 23.658 95.188C23.154 95.2533 22.636 95.2953 22.104 95.314C21.572 95.3233 21.04 95.314 20.508 95.286L20.466 94.936C21.4273 94.8427 22.2953 94.712 23.07 94.544C23.854 94.376 24.6053 94.0913 25.324 93.69C26.0053 93.3353 26.5327 92.9013 26.906 92.388C27.2793 91.8653 27.466 91.2447 27.466 90.526C27.466 90.0407 27.3587 89.602 27.144 89.21C26.9387 88.818 26.6353 88.5053 26.234 88.272C25.842 88.0387 25.366 87.922 24.806 87.922C24.4513 87.922 24.0873 87.978 23.714 88.09C23.35 88.202 22.9907 88.3467 22.636 88.524C22.2907 88.692 21.9593 88.8787 21.642 89.084C21.3247 89.2893 21.0353 89.4853 20.774 89.672C20.522 89.8587 20.3073 90.0127 20.13 90.134C19.6913 90.4513 19.36 90.7033 19.136 90.89C18.912 91.0673 18.6833 91.156 18.45 91.156C18.282 91.156 18.0953 91.1 17.89 90.988C17.6847 90.876 17.498 90.7407 17.33 90.582C17.1713 90.414 17.0547 90.2507 16.98 90.092C16.9147 89.9427 16.8727 89.7887 16.854 89.63C16.8447 89.462 16.8307 89.3033 16.812 89.154L17.022 89.042ZM35.53 85.528L35.502 85.29C35.6607 85.206 35.8333 85.1313 36.02 85.066C36.216 85.0007 36.426 84.968 36.65 84.968C36.902 84.968 37.1587 85.01 37.42 85.094C37.6813 85.178 37.9007 85.2853 38.078 85.416C38.2553 85.5373 38.344 85.6773 38.344 85.836C38.344 85.976 38.3067 86.0973 38.232 86.2C38.1573 86.3027 38.1013 86.4427 38.064 86.62C38.008 86.8347 37.9567 87.124 37.91 87.488C37.8633 87.852 37.826 88.2673 37.798 88.734C37.7793 89.1913 37.77 89.6953 37.77 90.246C37.77 90.918 37.7933 91.52 37.84 92.052C37.896 92.584 37.9473 93.0693 37.994 93.508C38.05 93.9467 38.078 94.376 38.078 94.796C38.078 95.3747 37.8447 95.832 37.378 96.168C36.9207 96.504 36.286 96.672 35.474 96.672C34.7273 96.672 34.1113 96.518 33.626 96.21C33.1407 95.902 32.898 95.4633 32.898 94.894C32.898 94.5113 33.0427 94.1847 33.332 93.914C33.6213 93.6433 34.0133 93.438 34.508 93.298C35.0027 93.1487 35.5533 93.074 36.16 93.074C36.8227 93.074 37.4293 93.13 37.98 93.242C38.5307 93.354 39.016 93.494 39.436 93.662C39.8653 93.83 40.22 93.998 40.5 94.166C40.7893 94.334 41.004 94.4787 41.144 94.6C41.34 94.7493 41.494 94.908 41.606 95.076C41.7273 95.2347 41.788 95.412 41.788 95.608C41.788 95.804 41.7367 95.9487 41.634 96.042C41.5407 96.1447 41.4193 96.196 41.27 96.196C41.1207 96.196 40.9947 96.1587 40.892 96.084C40.7893 96.0093 40.6587 95.9067 40.5 95.776C40.0893 95.4027 39.6367 95.0667 39.142 94.768C38.6473 94.4693 38.106 94.236 37.518 94.068C36.9393 93.9 36.3047 93.816 35.614 93.816C34.9887 93.816 34.4847 93.9187 34.102 94.124C33.7193 94.32 33.528 94.5533 33.528 94.824C33.528 95.0667 33.6493 95.2673 33.892 95.426C34.1347 95.5753 34.4613 95.65 34.872 95.65C35.3853 95.65 35.7913 95.5987 36.09 95.496C36.3887 95.384 36.6033 95.202 36.734 94.95C36.874 94.698 36.944 94.3527 36.944 93.914C36.944 93.606 36.9347 93.2233 36.916 92.766C36.8973 92.3087 36.874 91.814 36.846 91.282C36.8273 90.7407 36.818 90.1993 36.818 89.658C36.818 89.322 36.818 88.9767 36.818 88.622C36.8273 88.258 36.8367 87.9127 36.846 87.586C36.8553 87.2593 36.86 86.9793 36.86 86.746C36.8693 86.5033 36.874 86.34 36.874 86.256C36.874 86.116 36.8507 86.0133 36.804 85.948C36.7573 85.8827 36.678 85.8267 36.566 85.78C36.4167 85.724 36.2627 85.6773 36.104 85.64C35.9453 85.6027 35.754 85.5653 35.53 85.528ZM32.24 86.788C32.4733 86.9653 32.6973 87.1193 32.912 87.25C33.136 87.3713 33.3833 87.4693 33.654 87.544C33.934 87.6093 34.2747 87.642 34.676 87.642C35.1613 87.642 35.6513 87.6187 36.146 87.572C36.65 87.516 37.1307 87.4507 37.588 87.376C38.0453 87.292 38.456 87.208 38.82 87.124C39.184 87.04 39.4733 86.9607 39.688 86.886C39.94 86.8113 40.1267 86.7413 40.248 86.676C40.3693 86.6107 40.4673 86.578 40.542 86.578C40.6633 86.578 40.8033 86.5967 40.962 86.634C41.1207 86.6713 41.256 86.732 41.368 86.816C41.4893 86.8907 41.55 87.0027 41.55 87.152C41.55 87.32 41.494 87.446 41.382 87.53C41.2793 87.6047 41.1393 87.6747 40.962 87.74C40.7567 87.8147 40.4533 87.9033 40.052 88.006C39.6507 88.0993 39.1793 88.1973 38.638 88.3C38.0967 88.3933 37.5133 88.4727 36.888 88.538C36.2627 88.594 35.6233 88.622 34.97 88.622C34.522 88.622 34.1207 88.5753 33.766 88.482C33.4113 88.3887 33.0893 88.2207 32.8 87.978C32.52 87.726 32.2633 87.3807 32.03 86.942L32.24 86.788ZM34.13 89.014C33.8873 89.35 33.7707 89.616 33.78 89.812C33.7987 90.008 33.9247 90.148 34.158 90.232C34.4007 90.316 34.7273 90.358 35.138 90.358C35.6607 90.358 36.174 90.3347 36.678 90.288C37.182 90.232 37.672 90.162 38.148 90.078C38.624 89.9847 39.058 89.8727 39.45 89.742C39.7207 89.658 39.9213 89.588 40.052 89.532C40.1827 89.4667 40.2807 89.434 40.346 89.434C40.5793 89.434 40.7893 89.476 40.976 89.56C41.172 89.6347 41.27 89.77 41.27 89.966C41.27 90.1247 41.2233 90.2507 41.13 90.344C41.0367 90.428 40.9153 90.5027 40.766 90.568C40.5793 90.6427 40.29 90.7267 39.898 90.82C39.5153 90.904 39.0673 90.988 38.554 91.072C38.0407 91.1467 37.4993 91.212 36.93 91.268C36.3607 91.3147 35.7913 91.338 35.222 91.338C34.746 91.338 34.3307 91.2773 33.976 91.156C33.6307 91.0253 33.3787 90.848 33.22 90.624C33.0707 90.4 33.0427 90.1387 33.136 89.84C33.2293 89.5413 33.4813 89.2147 33.892 88.86L34.13 89.014ZM47.64 84.688L47.78 84.534C47.9293 84.5527 48.0787 84.5853 48.228 84.632C48.3867 84.6693 48.5267 84.7253 48.648 84.8C48.8627 84.912 49.054 85.0567 49.222 85.234C49.3993 85.402 49.5393 85.5747 49.642 85.752C49.7447 85.9293 49.796 86.088 49.796 86.228C49.796 86.396 49.7727 86.55 49.726 86.69C49.6887 86.8207 49.642 86.97 49.586 87.138C49.5113 87.362 49.4507 87.5813 49.404 87.796C49.3573 88.0013 49.3153 88.202 49.278 88.398C49.2687 88.5287 49.2827 88.5987 49.32 88.608C49.3667 88.6173 49.4273 88.5567 49.502 88.426C49.7353 88.0153 49.9873 87.6607 50.258 87.362C50.5287 87.054 50.8133 86.816 51.112 86.648C51.42 86.48 51.728 86.396 52.036 86.396C52.5867 86.396 53.0487 86.5687 53.422 86.914C53.8047 87.2593 54.0987 87.7633 54.304 88.426C54.5093 89.0793 54.612 89.8727 54.612 90.806C54.612 91.8233 54.43 92.7567 54.066 93.606C53.7113 94.4553 53.128 95.1833 52.316 95.79C51.504 96.3873 50.4213 96.826 49.068 97.106L48.942 96.812C49.838 96.4573 50.5613 96.0513 51.112 95.594C51.672 95.1273 52.1013 94.628 52.4 94.096C52.708 93.5547 52.918 92.99 53.03 92.402C53.142 91.814 53.198 91.2213 53.198 90.624C53.198 89.8213 53.1373 89.1587 53.016 88.636C52.904 88.104 52.736 87.7073 52.512 87.446C52.2973 87.1847 52.0407 87.054 51.742 87.054C51.546 87.054 51.336 87.1147 51.112 87.236C50.888 87.348 50.6687 87.516 50.454 87.74C50.2487 87.964 50.0667 88.2347 49.908 88.552C49.684 88.9907 49.5113 89.4247 49.39 89.854C49.278 90.274 49.222 90.7173 49.222 91.184C49.222 91.492 49.236 91.772 49.264 92.024C49.3013 92.2667 49.32 92.528 49.32 92.808C49.32 92.976 49.264 93.116 49.152 93.228C49.04 93.3307 48.9047 93.382 48.746 93.382C48.5873 93.382 48.452 93.3447 48.34 93.27C48.228 93.186 48.13 93.06 48.046 92.892C47.99 92.7707 47.9433 92.6307 47.906 92.472C47.878 92.304 47.8547 92.1313 47.836 91.954C47.8173 91.7767 47.808 91.6133 47.808 91.464C47.808 91.1093 47.8407 90.7033 47.906 90.246C47.9713 89.7887 48.046 89.3267 48.13 88.86C48.214 88.3933 48.2887 87.9687 48.354 87.586C48.4193 87.2033 48.452 86.9047 48.452 86.69C48.452 86.41 48.424 86.1627 48.368 85.948C48.3213 85.724 48.2373 85.514 48.116 85.318C47.9947 85.122 47.836 84.912 47.64 84.688ZM60.506 91.702C60.506 92.57 60.5807 93.3773 60.73 94.124C60.8793 94.8707 61.1267 95.6033 61.472 96.322C61.8267 97.05 62.3073 97.8247 62.914 98.646L62.606 98.898C61.4953 97.8433 60.66 96.742 60.1 95.594C59.54 94.4367 59.26 93.1393 59.26 91.702C59.26 90.2553 59.54 88.958 60.1 87.81C60.66 86.6527 61.4953 85.5467 62.606 84.492L62.914 84.758C62.2887 85.5793 61.7987 86.354 61.444 87.082C61.0987 87.8007 60.856 88.5333 60.716 89.28C60.576 90.0173 60.506 90.8247 60.506 91.702ZM66.0747 93.998L66.2847 94.012C66.4247 94.5533 66.4527 95.034 66.3687 95.454C66.2941 95.874 66.1541 96.2193 65.9487 96.49C65.7434 96.7607 65.5241 96.9567 65.2907 97.078C65.0574 97.1993 64.8147 97.2413 64.5627 97.204C64.3107 97.1667 64.1427 97.0313 64.0587 96.798C63.9934 96.5927 64.0121 96.406 64.1147 96.238C64.2267 96.0793 64.3807 95.958 64.5767 95.874C64.7914 95.79 65.0061 95.6593 65.2207 95.482C65.4447 95.3047 65.6361 95.09 65.7947 94.838C65.9534 94.586 66.0467 94.306 66.0747 93.998ZM68.0907 94.082C68.5387 94.362 68.8794 94.6467 69.1127 94.936C69.3554 95.2253 69.5141 95.5007 69.5887 95.762C69.6634 96.0233 69.6774 96.2567 69.6307 96.462C69.5841 96.6673 69.4907 96.826 69.3507 96.938C69.2201 97.05 69.0707 97.092 68.9027 97.064C68.7347 97.0453 68.5621 96.9473 68.3847 96.77C68.3941 96.4807 68.3801 96.182 68.3427 95.874C68.3054 95.5567 68.2447 95.2487 68.1607 94.95C68.0861 94.6513 68.0067 94.3853 67.9227 94.152L68.0907 94.082ZM70.6667 94.096C71.2454 94.292 71.7027 94.516 72.0387 94.768C72.3747 95.02 72.6174 95.2767 72.7667 95.538C72.9161 95.79 72.9861 96.028 72.9767 96.252C72.9767 96.4853 72.9207 96.672 72.8087 96.812C72.6967 96.952 72.5474 97.0267 72.3607 97.036C72.1834 97.0547 71.9921 96.9847 71.7867 96.826C71.7307 96.5367 71.6327 96.2333 71.4927 95.916C71.3621 95.5893 71.2081 95.2767 71.0307 94.978C70.8627 94.6793 70.6901 94.4133 70.5127 94.18L70.6667 94.096ZM73.4667 94.054C74.1854 94.194 74.7734 94.3807 75.2307 94.614C75.6881 94.8473 76.0287 95.0993 76.2527 95.37C76.4861 95.6407 76.6307 95.902 76.6867 96.154C76.7427 96.406 76.7287 96.6207 76.6447 96.798C76.5607 96.9753 76.4254 97.0873 76.2387 97.134C76.0614 97.19 75.8514 97.1527 75.6087 97.022C75.4967 96.686 75.3194 96.3407 75.0767 95.986C74.8341 95.6313 74.5587 95.2953 74.2507 94.978C73.9427 94.6607 73.6394 94.3947 73.3407 94.18L73.4667 94.054ZM66.4107 87.25H74.3627V87.656H66.4107V87.25ZM66.4107 89.406H74.3907V89.812H66.4107V89.406ZM73.7467 85.094H73.6207L74.2647 84.366L75.6507 85.43C75.6041 85.4767 75.5341 85.528 75.4407 85.584C75.3474 85.64 75.2354 85.6773 75.1047 85.696V89.924C75.1047 89.9613 75.0394 90.008 74.9087 90.064C74.7781 90.12 74.6241 90.1713 74.4467 90.218C74.2787 90.2647 74.1201 90.288 73.9707 90.288H73.7467V85.094ZM65.6267 85.094V84.492L67.0687 85.094H74.2087V85.486H66.9707V90.176C66.9707 90.2227 66.9101 90.2833 66.7887 90.358C66.6767 90.4233 66.5321 90.484 66.3547 90.54C66.1867 90.5867 66.0094 90.61 65.8227 90.61H65.6267V85.094ZM69.6727 85.122H71.0027V93.424H69.6727V85.122ZM65.3467 91.324H73.4947L74.2647 90.344C74.2647 90.344 74.3114 90.3813 74.4047 90.456C74.4981 90.5307 74.6147 90.6287 74.7547 90.75C74.9041 90.862 75.0581 90.988 75.2167 91.128C75.3847 91.2587 75.5387 91.3847 75.6787 91.506C75.6414 91.6553 75.5154 91.73 75.3007 91.73H65.4587L65.3467 91.324ZM64.0027 93.242H74.5307L75.3567 92.192C75.3567 92.192 75.4081 92.234 75.5107 92.318C75.6134 92.3927 75.7394 92.4953 75.8887 92.626C76.0474 92.7473 76.2154 92.878 76.3927 93.018C76.5701 93.158 76.7287 93.2933 76.8687 93.424C76.8501 93.4987 76.8034 93.5547 76.7287 93.592C76.6634 93.6293 76.5794 93.648 76.4767 93.648H64.1287L64.0027 93.242ZM87.9567 86.088C87.8261 85.9013 87.6861 85.7007 87.5367 85.486C87.3874 85.2713 87.1681 85.038 86.8787 84.786L87.0327 84.576C87.3594 84.6973 87.6534 84.8233 87.9147 84.954C88.1761 85.0847 88.4001 85.2387 88.5867 85.416C88.7547 85.5653 88.8667 85.71 88.9227 85.85C88.9881 85.9807 89.0207 86.1113 89.0207 86.242C89.0207 86.3727 88.9787 86.48 88.8947 86.564C88.8201 86.6387 88.7174 86.676 88.5867 86.676C88.4747 86.676 88.3721 86.62 88.2787 86.508C88.1854 86.396 88.0781 86.256 87.9567 86.088ZM89.6227 85.556C89.4921 85.3787 89.3521 85.192 89.2027 84.996C89.0534 84.7907 88.8247 84.5667 88.5167 84.324L88.6707 84.114C89.0254 84.226 89.3287 84.338 89.5807 84.45C89.8421 84.562 90.0707 84.7067 90.2667 84.884C90.4254 85.0333 90.5327 85.1733 90.5887 85.304C90.6541 85.4347 90.6867 85.5653 90.6867 85.696C90.6867 85.8267 90.6447 85.934 90.5607 86.018C90.4767 86.0927 90.3741 86.13 90.2527 86.13C90.1501 86.13 90.0474 86.0787 89.9447 85.976C89.8514 85.864 89.7441 85.724 89.6227 85.556ZM78.4227 87.418L78.6607 87.32C78.8007 87.4973 78.9221 87.6513 79.0247 87.782C79.1367 87.9033 79.2534 88.0013 79.3747 88.076C79.4961 88.1413 79.6361 88.1787 79.7947 88.188C79.9347 88.188 80.1727 88.174 80.5087 88.146C80.8447 88.1087 81.2414 88.062 81.6987 88.006C82.1561 87.95 82.6181 87.894 83.0847 87.838C83.5607 87.7727 84.0087 87.7167 84.4287 87.67C84.8487 87.614 85.1847 87.5767 85.4367 87.558C86.1367 87.4833 86.7061 87.418 87.1447 87.362C87.5927 87.2967 87.9427 87.2453 88.1947 87.208C88.4561 87.1613 88.6521 87.1287 88.7827 87.11C88.9134 87.0913 89.0114 87.082 89.0767 87.082C89.2914 87.082 89.5107 87.1193 89.7347 87.194C89.9681 87.2687 90.1641 87.376 90.3227 87.516C90.4814 87.6467 90.5607 87.8053 90.5607 87.992C90.5607 88.1787 90.5094 88.3047 90.4067 88.37C90.3041 88.426 90.1641 88.454 89.9867 88.454C89.8467 88.454 89.6694 88.44 89.4547 88.412C89.2401 88.3747 88.9694 88.3373 88.6427 88.3C88.3161 88.2627 87.9054 88.244 87.4107 88.244C86.9254 88.2347 86.3281 88.2627 85.6187 88.328C85.0401 88.3747 84.4754 88.4447 83.9247 88.538C83.3834 88.6313 82.8887 88.7293 82.4407 88.832C81.9927 88.9253 81.6194 89.014 81.3207 89.098C81.1061 89.154 80.9194 89.2193 80.7607 89.294C80.6114 89.3593 80.4761 89.4153 80.3547 89.462C80.2334 89.5087 80.0981 89.532 79.9487 89.532C79.7807 89.532 79.5941 89.4713 79.3887 89.35C79.1927 89.2193 79.0154 89.0607 78.8567 88.874C78.6981 88.6873 78.5907 88.5147 78.5347 88.356C78.4881 88.216 78.4601 88.062 78.4507 87.894C78.4414 87.726 78.4321 87.5673 78.4227 87.418ZM83.3507 85.766L83.3227 85.528C83.4721 85.4347 83.6447 85.3413 83.8407 85.248C84.0367 85.1547 84.2421 85.108 84.4567 85.108C84.6901 85.108 84.9327 85.1453 85.1847 85.22C85.4461 85.2853 85.6654 85.374 85.8427 85.486C86.0201 85.598 86.1087 85.724 86.1087 85.864C86.1087 86.0413 86.0667 86.2047 85.9827 86.354C85.9081 86.494 85.8614 86.6527 85.8427 86.83C85.8334 86.998 85.8241 87.2547 85.8147 87.6C85.8054 87.9453 85.7961 88.3327 85.7867 88.762C85.7867 89.1913 85.7867 89.6253 85.7867 90.064C85.7961 90.5027 85.8054 90.8947 85.8147 91.24L84.8627 90.33C84.8627 90.1993 84.8534 90.0127 84.8347 89.77C84.8254 89.5273 84.8114 89.2567 84.7927 88.958C84.7834 88.65 84.7694 88.3373 84.7507 88.02C84.7321 87.6933 84.7087 87.39 84.6807 87.11C84.6621 86.8207 84.6387 86.5733 84.6107 86.368C84.6014 86.2373 84.5734 86.144 84.5267 86.088C84.4801 86.032 84.4007 85.9853 84.2887 85.948C84.1861 85.9013 84.0507 85.864 83.8827 85.836C83.7241 85.808 83.5467 85.7847 83.3507 85.766ZM84.2607 89.854C84.7741 89.854 85.1847 89.9707 85.4927 90.204C85.8101 90.428 86.0387 90.7313 86.1787 91.114C86.3187 91.4873 86.3887 91.912 86.3887 92.388C86.3887 93.0693 86.2581 93.6807 85.9967 94.222C85.7447 94.754 85.3854 95.2207 84.9187 95.622C84.4614 96.014 83.9201 96.3407 83.2947 96.602C82.6787 96.8633 82.0067 97.064 81.2787 97.204L81.1387 96.896C81.9974 96.588 82.7534 96.196 83.4067 95.72C84.0694 95.244 84.5314 94.67 84.7927 93.998C84.3354 94.166 83.9201 94.1707 83.5467 94.012C83.1734 93.8533 82.8747 93.5873 82.6507 93.214C82.4361 92.8407 82.3287 92.4207 82.3287 91.954C82.3287 91.562 82.4081 91.212 82.5667 90.904C82.7347 90.5867 82.9634 90.3347 83.2527 90.148C83.5421 89.952 83.8781 89.854 84.2607 89.854ZM84.1067 93.074C84.4427 93.074 84.6854 92.976 84.8347 92.78C84.9934 92.584 85.0727 92.2667 85.0727 91.828C85.0727 91.436 84.9887 91.1233 84.8207 90.89C84.6621 90.6473 84.4334 90.526 84.1347 90.526C83.7894 90.526 83.5141 90.652 83.3087 90.904C83.1034 91.156 83.0007 91.464 83.0007 91.828C83.0007 92.1827 83.1034 92.4813 83.3087 92.724C83.5234 92.9573 83.7894 93.074 84.1067 93.074ZM94.6207 85.71L94.8447 85.654C94.9661 85.85 95.0781 86.0227 95.1807 86.172C95.2927 86.312 95.4514 86.382 95.6567 86.382C95.8061 86.382 95.9834 86.3633 96.1887 86.326C96.3941 86.2793 96.6087 86.228 96.8327 86.172C97.0567 86.116 97.2714 86.0553 97.4767 85.99C97.6914 85.9247 97.8687 85.8687 98.0087 85.822C98.2701 85.738 98.4567 85.6493 98.5687 85.556C98.6807 85.4533 98.7974 85.402 98.9187 85.402C99.0401 85.402 99.1801 85.444 99.3387 85.528C99.5067 85.6027 99.6701 85.7007 99.8287 85.822C99.9967 85.9433 100.132 86.074 100.235 86.214C100.347 86.3447 100.403 86.466 100.403 86.578C100.403 86.69 100.351 86.7927 100.249 86.886C100.146 86.97 100.025 87.0587 99.8847 87.152C99.7447 87.236 99.6094 87.348 99.4787 87.488C99.3387 87.628 99.1707 87.8287 98.9747 88.09C98.7881 88.342 98.5874 88.622 98.3727 88.93C98.1581 89.2287 97.9527 89.532 97.7567 89.84C97.5607 90.148 97.3927 90.428 97.2527 90.68C97.0941 90.9693 96.9214 91.3007 96.7347 91.674C96.5574 92.0473 96.3801 92.4207 96.2027 92.794C96.0254 93.1673 95.8574 93.5033 95.6987 93.802C95.5494 94.1007 95.4234 94.3247 95.3207 94.474C95.0687 94.8567 94.8167 95.1413 94.5647 95.328C94.3127 95.5147 94.0094 95.608 93.6547 95.608C93.3841 95.608 93.1507 95.4867 92.9547 95.244C92.7681 95.0013 92.6327 94.698 92.5487 94.334C92.4647 93.97 92.4461 93.6107 92.4927 93.256C92.5394 92.9107 92.6701 92.598 92.8847 92.318C93.0994 92.0287 93.3701 91.772 93.6967 91.548C94.0327 91.324 94.3967 91.1373 94.7887 90.988C95.1807 90.8293 95.5867 90.708 96.0067 90.624C96.4267 90.54 96.8327 90.498 97.2247 90.498C97.9527 90.498 98.6247 90.5587 99.2407 90.68C99.8661 90.8013 100.431 90.9507 100.935 91.128C101.448 91.3053 101.891 91.492 102.265 91.688C102.526 91.828 102.773 91.9727 103.007 92.122C103.249 92.2713 103.469 92.4207 103.665 92.57C103.861 92.71 104.029 92.8453 104.169 92.976C104.327 93.1253 104.444 93.2793 104.519 93.438C104.603 93.5967 104.64 93.7927 104.631 94.026C104.631 94.1753 104.584 94.3107 104.491 94.432C104.397 94.5533 104.248 94.614 104.043 94.614C103.875 94.614 103.697 94.5393 103.511 94.39C103.333 94.2313 103.114 94.026 102.853 93.774C102.601 93.5127 102.269 93.2373 101.859 92.948C101.607 92.7613 101.322 92.57 101.005 92.374C100.697 92.1687 100.337 91.9773 99.9267 91.8C99.5254 91.6227 99.0587 91.478 98.5267 91.366C97.9947 91.254 97.3834 91.198 96.6927 91.198C96.2447 91.198 95.8201 91.254 95.4187 91.366C95.0174 91.4687 94.6487 91.6087 94.3127 91.786C93.9861 91.9633 93.7154 92.164 93.5007 92.388C93.2954 92.612 93.1601 92.85 93.0947 93.102C93.0574 93.2793 93.0574 93.4567 93.0947 93.634C93.1414 93.802 93.2114 93.9467 93.3047 94.068C93.4074 94.18 93.5147 94.236 93.6267 94.236C93.7947 94.236 93.9347 94.1893 94.0467 94.096C94.1681 94.0027 94.3081 93.8487 94.4667 93.634C94.5787 93.4847 94.7094 93.284 94.8587 93.032C95.0081 92.78 95.1667 92.5093 95.3347 92.22C95.5027 91.9307 95.6614 91.6507 95.8107 91.38C95.9601 91.1093 96.0907 90.876 96.2027 90.68C96.3707 90.3813 96.5667 90.0407 96.7907 89.658C97.0241 89.2753 97.2527 88.8927 97.4767 88.51C97.7101 88.1273 97.9154 87.7867 98.0927 87.488C98.2701 87.18 98.3914 86.956 98.4567 86.816C98.5221 86.6947 98.5314 86.6107 98.4847 86.564C98.4474 86.5173 98.3774 86.5127 98.2747 86.55C98.1254 86.5967 97.9527 86.6667 97.7567 86.76C97.5607 86.844 97.3647 86.9327 97.1687 87.026C96.9727 87.1193 96.8001 87.208 96.6507 87.292C96.5387 87.348 96.4221 87.4227 96.3007 87.516C96.1794 87.6093 96.0487 87.656 95.9087 87.656C95.7407 87.656 95.5587 87.5953 95.3627 87.474C95.1667 87.3433 94.9987 87.1893 94.8587 87.012C94.7281 86.8253 94.6441 86.6573 94.6067 86.508C94.5881 86.3867 94.5787 86.256 94.5787 86.116C94.5881 85.9667 94.6021 85.8313 94.6207 85.71ZM101.061 89.56V89.336C101.191 89.2707 101.331 89.2193 101.481 89.182C101.639 89.1353 101.789 89.1167 101.929 89.126C102.125 89.1353 102.316 89.1913 102.503 89.294C102.689 89.3873 102.843 89.4993 102.965 89.63C103.095 89.7607 103.161 89.882 103.161 89.994C103.161 90.1153 103.147 90.246 103.119 90.386C103.091 90.5167 103.067 90.6613 103.049 90.82C103.03 90.9507 103.002 91.128 102.965 91.352C102.927 91.576 102.876 91.814 102.811 92.066C102.755 92.318 102.685 92.5653 102.601 92.808C102.227 93.928 101.56 94.8287 100.599 95.51C99.6467 96.182 98.4474 96.6533 97.0007 96.924L96.8327 96.644C98.0927 96.224 99.1101 95.6313 99.8847 94.866C100.669 94.0913 101.224 93.1907 101.551 92.164C101.672 91.8 101.751 91.4453 101.789 91.1C101.835 90.7547 101.854 90.4747 101.845 90.26C101.835 90.1387 101.817 90.0453 101.789 89.98C101.77 89.9147 101.714 89.854 101.621 89.798C101.499 89.7047 101.313 89.6253 101.061 89.56ZM108.271 91.702C108.271 90.8247 108.196 90.0127 108.047 89.266C107.897 88.5193 107.65 87.7867 107.305 87.068C106.959 86.34 106.483 85.57 105.877 84.758L106.157 84.492C107.277 85.5467 108.117 86.6527 108.677 87.81C109.237 88.958 109.517 90.2553 109.517 91.702C109.517 93.1393 109.237 94.4367 108.677 95.594C108.117 96.7513 107.277 97.8527 106.157 98.898L105.877 98.646C106.493 97.8153 106.973 97.036 107.319 96.308C107.673 95.5893 107.921 94.8613 108.061 94.124C108.201 93.3773 108.271 92.57 108.271 91.702ZM117.885 86.158C117.885 86.2607 117.885 86.3633 117.885 86.466C117.885 86.5593 117.885 86.6387 117.885 86.704V94.908C117.885 95.104 117.941 95.244 118.053 95.328C118.175 95.4027 118.417 95.44 118.781 95.44H120.699C121.082 95.44 121.413 95.4353 121.693 95.426C121.983 95.4167 122.202 95.4073 122.351 95.398C122.473 95.3793 122.566 95.356 122.631 95.328C122.697 95.3 122.757 95.244 122.813 95.16C122.907 95.02 123.009 94.7587 123.121 94.376C123.243 93.984 123.378 93.5173 123.527 92.976H123.681L123.737 95.244C123.98 95.328 124.143 95.4167 124.227 95.51C124.311 95.594 124.353 95.7107 124.353 95.86C124.353 96.028 124.302 96.168 124.199 96.28C124.097 96.392 123.91 96.4807 123.639 96.546C123.369 96.6207 122.986 96.672 122.491 96.7C121.997 96.7373 121.362 96.756 120.587 96.756H118.627C118.086 96.756 117.657 96.714 117.339 96.63C117.031 96.546 116.807 96.3967 116.667 96.182C116.527 95.9673 116.457 95.6593 116.457 95.258V86.158H117.885ZM122.757 85.486C122.692 85.5513 122.589 85.5887 122.449 85.598C122.309 85.6073 122.132 85.57 121.917 85.486C121.283 85.6727 120.564 85.8593 119.761 86.046C118.959 86.2327 118.105 86.4053 117.199 86.564C116.303 86.7133 115.389 86.8487 114.455 86.97C113.522 87.0913 112.603 87.18 111.697 87.236L111.641 87.012C112.5 86.872 113.387 86.6947 114.301 86.48C115.216 86.2653 116.112 86.0367 116.989 85.794C117.867 85.542 118.674 85.2807 119.411 85.01C120.158 84.7393 120.797 84.478 121.329 84.226L122.757 85.486ZM122.561 90.162C122.561 90.162 122.622 90.1993 122.743 90.274C122.865 90.3393 123.019 90.428 123.205 90.54C123.401 90.6427 123.602 90.7593 123.807 90.89C124.022 91.0207 124.218 91.142 124.395 91.254C124.386 91.338 124.349 91.4033 124.283 91.45C124.218 91.4967 124.134 91.5247 124.031 91.534L111.361 93.046L111.193 92.668L121.777 91.408L122.561 90.162ZM121.175 87.376C121.175 87.376 121.231 87.4087 121.343 87.474C121.465 87.5393 121.619 87.628 121.805 87.74C121.992 87.8427 122.188 87.9593 122.393 88.09C122.599 88.2113 122.79 88.328 122.967 88.44C122.939 88.608 122.818 88.7013 122.603 88.72L112.243 90.036L112.075 89.658L120.405 88.608L121.175 87.376ZM129.617 88.944L131.619 89.434C131.601 89.5273 131.549 89.602 131.465 89.658C131.381 89.714 131.255 89.7467 131.087 89.756C130.751 91.0627 130.317 92.192 129.785 93.144C129.253 94.0867 128.619 94.8847 127.881 95.538C127.153 96.1913 126.318 96.7327 125.375 97.162L125.235 97.008C125.973 96.448 126.64 95.776 127.237 94.992C127.835 94.208 128.339 93.312 128.749 92.304C129.16 91.296 129.449 90.176 129.617 88.944ZM127.181 86.802H136.995V87.194H127.181V86.802ZM131.073 84.198L132.977 84.366C132.968 84.4593 132.921 84.5387 132.837 84.604C132.763 84.6693 132.637 84.716 132.459 84.744V86.97H131.073V84.198ZM127.069 85.92H127.279C127.475 86.4893 127.569 86.998 127.559 87.446C127.55 87.894 127.475 88.272 127.335 88.58C127.205 88.888 127.037 89.1213 126.831 89.28C126.701 89.392 126.547 89.462 126.369 89.49C126.192 89.518 126.024 89.4993 125.865 89.434C125.716 89.3687 125.609 89.2567 125.543 89.098C125.45 88.8833 125.45 88.6873 125.543 88.51C125.646 88.3233 125.795 88.1693 125.991 88.048C126.169 87.936 126.341 87.7727 126.509 87.558C126.677 87.334 126.813 87.082 126.915 86.802C127.027 86.522 127.079 86.228 127.069 85.92ZM136.295 86.802H136.127L136.911 86.032L138.269 87.32C138.213 87.376 138.143 87.4133 138.059 87.432C137.975 87.4507 137.859 87.4647 137.709 87.474C137.541 87.6793 137.327 87.8987 137.065 88.132C136.813 88.3653 136.552 88.594 136.281 88.818C136.011 89.0327 135.754 89.2193 135.511 89.378L135.371 89.28C135.483 89.0467 135.595 88.7807 135.707 88.482C135.829 88.1833 135.941 87.8847 136.043 87.586C136.155 87.278 136.239 87.0167 136.295 86.802ZM133.201 89C133.453 90.0827 133.831 91.0533 134.335 91.912C134.849 92.7613 135.446 93.4987 136.127 94.124C136.818 94.74 137.555 95.2487 138.339 95.65L138.311 95.818C137.975 95.93 137.7 96.1027 137.485 96.336C137.271 96.5693 137.135 96.8447 137.079 97.162C136.342 96.6113 135.698 95.9347 135.147 95.132C134.606 94.3293 134.149 93.424 133.775 92.416C133.411 91.408 133.131 90.3113 132.935 89.126L133.201 89Z" fill="#EFA3AF"/>
<rect x="0.5" y="114.5" width="129" height="29" rx="7.5" fill="white"/>
<rect x="0.5" y="114.5" width="129" height="29" rx="7.5" stroke="#EFA3AF"/>
<path d="M26.64 126.342C26.4907 126.361 26.276 126.384 25.996 126.412C25.716 126.44 25.3987 126.473 25.044 126.51C24.6893 126.538 24.3067 126.571 23.896 126.608C23.4947 126.645 23.0887 126.692 22.678 126.748C22.062 126.823 21.5393 126.902 21.11 126.986C20.6807 127.061 20.3493 127.098 20.116 127.098C19.9387 127.098 19.7613 127.033 19.584 126.902C19.4067 126.771 19.2527 126.622 19.122 126.454C19.01 126.314 18.9027 126.155 18.8 125.978C18.7067 125.801 18.632 125.623 18.576 125.446L18.772 125.306C19.0053 125.502 19.2387 125.661 19.472 125.782C19.7147 125.903 19.9713 125.964 20.242 125.964C20.5873 125.964 21.0353 125.936 21.586 125.88C22.1367 125.824 22.7153 125.749 23.322 125.656C23.8167 125.581 24.1947 125.502 24.456 125.418C24.7267 125.334 24.9273 125.259 25.058 125.194C25.1887 125.119 25.2867 125.063 25.352 125.026C25.4173 124.979 25.492 124.956 25.576 124.956C25.744 124.956 25.9213 124.979 26.108 125.026C26.304 125.073 26.4907 125.138 26.668 125.222C26.8453 125.297 26.9853 125.385 27.088 125.488C27.2 125.581 27.256 125.675 27.256 125.768C27.256 125.917 27.2093 126.048 27.116 126.16C27.032 126.263 26.8733 126.323 26.64 126.342ZM22.048 126.328C22.272 126.375 22.5007 126.435 22.734 126.51C22.9673 126.585 23.182 126.673 23.378 126.776C23.5833 126.869 23.7467 126.977 23.868 127.098C23.9987 127.219 24.064 127.341 24.064 127.462C24.064 127.593 24.0267 127.733 23.952 127.882C23.8867 128.031 23.8353 128.204 23.798 128.4C23.77 128.577 23.742 128.787 23.714 129.03C23.686 129.273 23.658 129.529 23.63 129.8C23.6113 130.071 23.5927 130.351 23.574 130.64C23.5553 130.92 23.5367 131.191 23.518 131.452L22.342 131.494C22.3607 131.251 22.3747 130.981 22.384 130.682C22.4027 130.383 22.4167 130.08 22.426 129.772C22.4353 129.455 22.44 129.156 22.44 128.876C22.4493 128.596 22.454 128.353 22.454 128.148C22.454 127.775 22.4073 127.467 22.314 127.224C22.2207 126.981 22.076 126.753 21.88 126.538L22.048 126.328ZM16.98 130.85L17.204 130.766C17.3813 130.953 17.568 131.111 17.764 131.242C17.9693 131.373 18.2027 131.438 18.464 131.438C18.66 131.438 18.9773 131.424 19.416 131.396C19.8547 131.359 20.3633 131.312 20.942 131.256C21.5207 131.2 22.1273 131.144 22.762 131.088C23.3967 131.023 24.0127 130.967 24.61 130.92C25.2073 130.873 25.7347 130.836 26.192 130.808C26.4347 130.78 26.6213 130.752 26.752 130.724C26.892 130.687 26.9993 130.654 27.074 130.626C27.158 130.598 27.2327 130.584 27.298 130.584C27.466 130.584 27.6573 130.621 27.872 130.696C28.096 130.771 28.3107 130.869 28.516 130.99C28.7213 131.102 28.8893 131.233 29.02 131.382C29.16 131.522 29.23 131.657 29.23 131.788C29.23 131.956 29.1787 132.091 29.076 132.194C28.9827 132.287 28.852 132.334 28.684 132.334C28.5253 132.334 28.2873 132.301 27.97 132.236C27.662 132.161 27.284 132.087 26.836 132.012C26.388 131.937 25.8747 131.895 25.296 131.886C25.016 131.877 24.6893 131.881 24.316 131.9C23.9427 131.909 23.5553 131.933 23.154 131.97C22.7527 131.998 22.356 132.04 21.964 132.096C21.572 132.143 21.1987 132.199 20.844 132.264C20.4987 132.32 20.1953 132.381 19.934 132.446C19.6353 132.53 19.3787 132.619 19.164 132.712C18.9493 132.805 18.7487 132.852 18.562 132.852C18.394 132.852 18.212 132.787 18.016 132.656C17.82 132.516 17.6427 132.357 17.484 132.18C17.3253 132.003 17.2133 131.849 17.148 131.718C17.1013 131.606 17.064 131.485 17.036 131.354C17.008 131.223 16.9893 131.055 16.98 130.85ZM37.91 123.318L37.994 123.08C38.1713 123.071 38.3533 123.071 38.54 123.08C38.736 123.089 38.9227 123.127 39.1 123.192C39.324 123.257 39.5433 123.374 39.758 123.542C39.982 123.701 40.164 123.873 40.304 124.06C40.444 124.237 40.514 124.401 40.514 124.55C40.514 124.662 40.4813 124.751 40.416 124.816C40.36 124.872 40.2807 124.933 40.178 124.998C40.0753 125.063 39.9587 125.166 39.828 125.306C39.5387 125.614 39.1793 125.992 38.75 126.44C38.3207 126.879 37.8307 127.345 37.28 127.84C37.084 128.017 36.804 128.251 36.44 128.54C36.076 128.82 35.6467 129.128 35.152 129.464C34.6573 129.791 34.1067 130.117 33.5 130.444C32.9027 130.761 32.268 131.041 31.596 131.284L31.428 130.99C32.072 130.617 32.688 130.22 33.276 129.8C33.8733 129.371 34.4333 128.932 34.956 128.484C35.488 128.027 35.9733 127.579 36.412 127.14C36.8507 126.701 37.2333 126.286 37.56 125.894C37.8867 125.502 38.1527 125.157 38.358 124.858C38.61 124.494 38.736 124.228 38.736 124.06C38.736 123.939 38.6613 123.817 38.512 123.696C38.3627 123.575 38.162 123.449 37.91 123.318ZM36.79 127.602L37.364 127.126C37.672 127.331 37.9427 127.523 38.176 127.7C38.4187 127.868 38.54 128.031 38.54 128.19C38.54 128.302 38.5213 128.423 38.484 128.554C38.4467 128.675 38.4233 128.829 38.414 129.016C38.386 129.66 38.372 130.304 38.372 130.948C38.3813 131.583 38.3907 132.152 38.4 132.656C38.4187 133.16 38.428 133.543 38.428 133.804C38.428 134.084 38.372 134.294 38.26 134.434C38.1573 134.583 38.0033 134.658 37.798 134.658C37.5927 134.658 37.42 134.593 37.28 134.462C37.1493 134.331 37.0513 134.163 36.986 133.958C36.9207 133.753 36.888 133.552 36.888 133.356C36.888 133.225 36.9067 133.081 36.944 132.922C36.9813 132.763 37.014 132.567 37.042 132.334C37.07 132.101 37.0933 131.844 37.112 131.564C37.1307 131.275 37.1447 130.985 37.154 130.696C37.1727 130.397 37.182 130.113 37.182 129.842C37.1913 129.571 37.196 129.329 37.196 129.114C37.196 128.899 37.196 128.731 37.196 128.61C37.1867 128.405 37.1493 128.232 37.084 128.092C37.028 127.952 36.93 127.789 36.79 127.602ZM54.514 125.376C54.3833 125.18 54.2153 124.961 54.01 124.718C53.8047 124.466 53.548 124.205 53.24 123.934L53.408 123.724C53.7813 123.864 54.122 124.013 54.43 124.172C54.738 124.321 54.9853 124.489 55.172 124.676C55.34 124.825 55.4567 124.965 55.522 125.096C55.5873 125.227 55.62 125.362 55.62 125.502C55.62 125.633 55.5733 125.74 55.48 125.824C55.396 125.908 55.2887 125.95 55.158 125.95C55.046 125.95 54.9433 125.899 54.85 125.796C54.7567 125.684 54.6447 125.544 54.514 125.376ZM55.914 124.2C55.774 124.023 55.6107 123.831 55.424 123.626C55.2373 123.421 54.976 123.178 54.64 122.898L54.794 122.688C55.1767 122.8 55.5127 122.926 55.802 123.066C56.1007 123.206 56.3433 123.351 56.53 123.5C56.866 123.78 57.034 124.069 57.034 124.368C57.034 124.499 56.9967 124.606 56.922 124.69C56.8473 124.765 56.7447 124.802 56.614 124.802C56.4927 124.802 56.3807 124.746 56.278 124.634C56.1847 124.522 56.0633 124.377 55.914 124.2ZM47.57 124.312L47.696 124.032C47.9387 124.069 48.2187 124.121 48.536 124.186C48.8627 124.251 49.208 124.335 49.572 124.438C49.8987 124.559 50.1787 124.695 50.412 124.844C50.6547 124.993 50.846 125.161 50.986 125.348C51.126 125.525 51.196 125.735 51.196 125.978C51.196 126.137 51.14 126.281 51.028 126.412C50.9253 126.543 50.79 126.608 50.622 126.608C50.4353 126.608 50.2673 126.557 50.118 126.454C49.978 126.342 49.8287 126.193 49.67 126.006C49.5113 125.819 49.306 125.623 49.054 125.418C48.802 125.185 48.5453 124.975 48.284 124.788C48.0227 124.592 47.7847 124.433 47.57 124.312ZM56.586 126.258L56.852 126.44C56.488 127.149 56.0307 127.845 55.48 128.526C54.9293 129.207 54.3133 129.861 53.632 130.486C52.96 131.111 52.246 131.699 51.49 132.25C50.7433 132.791 49.9873 133.281 49.222 133.72C49.1007 133.795 48.9933 133.883 48.9 133.986C48.8067 134.089 48.7087 134.177 48.606 134.252C48.5127 134.327 48.396 134.364 48.256 134.364C48.0787 134.364 47.8687 134.303 47.626 134.182C47.3927 134.07 47.1687 133.925 46.954 133.748C46.7393 133.571 46.5667 133.389 46.436 133.202C46.3427 133.043 46.268 132.843 46.212 132.6C46.156 132.357 46.1233 132.157 46.114 131.998L46.31 131.9C46.422 132.021 46.5433 132.152 46.674 132.292C46.814 132.423 46.9633 132.539 47.122 132.642C47.2807 132.735 47.444 132.782 47.612 132.782C47.836 132.782 48.1533 132.693 48.564 132.516C48.9747 132.339 49.446 132.096 49.978 131.788C50.51 131.48 51.0747 131.121 51.672 130.71C52.2787 130.29 52.8807 129.837 53.478 129.352C54.0753 128.867 54.64 128.363 55.172 127.84C55.704 127.317 56.1753 126.79 56.586 126.258ZM45.75 127.154L45.862 126.874C46.1793 126.93 46.4827 126.986 46.772 127.042C47.0707 127.098 47.3927 127.182 47.738 127.294C48.0553 127.387 48.34 127.509 48.592 127.658C48.8533 127.807 49.0633 127.98 49.222 128.176C49.3807 128.363 49.46 128.582 49.46 128.834C49.46 128.927 49.4367 129.025 49.39 129.128C49.3527 129.221 49.2873 129.301 49.194 129.366C49.11 129.431 48.9933 129.464 48.844 129.464C48.6573 129.464 48.494 129.408 48.354 129.296C48.214 129.184 48.0693 129.044 47.92 128.876C47.7707 128.699 47.5793 128.512 47.346 128.316C47.0473 128.055 46.7673 127.831 46.506 127.644C46.254 127.448 46.002 127.285 45.75 127.154ZM60.3465 124.27C60.7945 124.345 61.2472 124.457 61.7045 124.606C62.1712 124.755 62.5959 124.937 62.9785 125.152C63.3705 125.357 63.6832 125.595 63.9165 125.866C64.1592 126.137 64.2805 126.435 64.2805 126.762C64.2805 126.967 64.2105 127.145 64.0705 127.294C63.9399 127.443 63.7672 127.518 63.5525 127.518C63.3752 127.518 63.2165 127.467 63.0765 127.364C62.9365 127.252 62.7732 127.075 62.5865 126.832C62.4185 126.617 62.2599 126.421 62.1105 126.244C61.9612 126.057 61.8025 125.88 61.6345 125.712C61.4665 125.535 61.2659 125.353 61.0325 125.166C60.8085 124.97 60.5332 124.755 60.2065 124.522L60.3465 124.27ZM70.3285 125.628L70.6085 125.81C70.0672 126.818 69.4232 127.761 68.6765 128.638C67.9299 129.506 67.0992 130.318 66.1845 131.074C65.2792 131.821 64.2992 132.525 63.2445 133.188C63.1232 133.263 63.0159 133.351 62.9225 133.454C62.8292 133.557 62.7359 133.645 62.6425 133.72C62.5585 133.795 62.4559 133.832 62.3345 133.832C62.1105 133.832 61.8679 133.762 61.6065 133.622C61.3452 133.482 61.1072 133.314 60.8925 133.118C60.6872 132.922 60.5332 132.74 60.4305 132.572C60.3559 132.432 60.2905 132.255 60.2345 132.04C60.1785 131.816 60.1459 131.62 60.1365 131.452L60.3465 131.326C60.4679 131.447 60.5985 131.578 60.7385 131.718C60.8879 131.858 61.0419 131.975 61.2005 132.068C61.3592 132.161 61.5179 132.208 61.6765 132.208C61.8912 132.208 62.2039 132.115 62.6145 131.928C63.0345 131.732 63.5105 131.466 64.0425 131.13C64.5839 130.794 65.1485 130.411 65.7365 129.982C66.3339 129.543 66.9172 129.077 67.4865 128.582C68.0652 128.087 68.5972 127.588 69.0825 127.084C69.5772 126.58 69.9925 126.095 70.3285 125.628ZM82.9771 124.816C82.8464 124.629 82.6831 124.424 82.4871 124.2C82.2911 123.967 82.0298 123.724 81.7031 123.472L81.8571 123.262C82.2398 123.374 82.5804 123.505 82.8791 123.654C83.1871 123.794 83.4344 123.957 83.6211 124.144C83.7891 124.293 83.9058 124.433 83.9711 124.564C84.0364 124.695 84.0691 124.825 84.0691 124.956C84.0691 125.087 84.0271 125.194 83.9431 125.278C83.8591 125.362 83.7518 125.404 83.6211 125.404C83.5184 125.404 83.4158 125.348 83.3131 125.236C83.2198 125.124 83.1078 124.984 82.9771 124.816ZM84.2091 123.794C84.0691 123.626 83.9058 123.449 83.7191 123.262C83.5418 123.066 83.2758 122.837 82.9211 122.576L83.0751 122.366C83.4578 122.469 83.7938 122.585 84.0831 122.716C84.3818 122.837 84.6198 122.968 84.7971 123.108C84.9838 123.248 85.1144 123.393 85.1891 123.542C85.2731 123.682 85.3151 123.827 85.3151 123.976C85.3151 124.116 85.2778 124.223 85.2031 124.298C85.1284 124.373 85.0304 124.41 84.9091 124.41C84.7784 124.41 84.6664 124.354 84.5731 124.242C84.4798 124.121 84.3584 123.971 84.2091 123.794ZM72.9811 129.646C73.4291 129.301 73.8584 128.923 74.2691 128.512C74.6798 128.092 75.0578 127.672 75.4031 127.252C75.7578 126.823 76.0658 126.412 76.3271 126.02C76.5884 125.628 76.7891 125.278 76.9291 124.97C77.0784 124.653 77.1531 124.41 77.1531 124.242C77.1531 124.111 77.0738 123.981 76.9151 123.85C76.7564 123.719 76.5604 123.598 76.3271 123.486L76.3831 123.262C76.5138 123.243 76.6491 123.229 76.7891 123.22C76.9384 123.201 77.1111 123.201 77.3071 123.22C77.5684 123.248 77.8298 123.313 78.0911 123.416C78.3524 123.519 78.5671 123.64 78.7351 123.78C78.9124 123.911 79.0011 124.027 79.0011 124.13C79.0011 124.27 78.9591 124.382 78.8751 124.466C78.8004 124.55 78.7071 124.681 78.5951 124.858C78.1938 125.53 77.7131 126.183 77.1531 126.818C76.6024 127.453 75.9911 128.041 75.3191 128.582C74.6564 129.114 73.9424 129.562 73.1771 129.926L72.9811 129.646ZM73.1211 134.658C74.0171 134.182 74.8804 133.617 75.7111 132.964C76.5418 132.311 77.3118 131.611 78.0211 130.864C78.7304 130.108 79.3511 129.343 79.8831 128.568C80.4151 127.793 80.8211 127.047 81.1011 126.328C81.1571 126.169 81.1104 126.09 80.9611 126.09C80.8864 126.09 80.7651 126.104 80.5971 126.132C80.4384 126.151 80.2564 126.179 80.0511 126.216C79.8458 126.253 79.6498 126.291 79.4631 126.328C79.2858 126.365 79.1411 126.398 79.0291 126.426C78.8798 126.473 78.7398 126.515 78.6091 126.552C78.4878 126.589 78.3664 126.608 78.2451 126.608C78.1331 126.608 77.9931 126.547 77.8251 126.426C77.6664 126.305 77.4938 126.169 77.3071 126.02L77.5451 125.586C77.6944 125.605 77.8204 125.619 77.9231 125.628C78.0258 125.637 78.1238 125.642 78.2171 125.642C78.3478 125.642 78.5391 125.633 78.7911 125.614C79.0431 125.586 79.3044 125.553 79.5751 125.516C79.8551 125.479 80.1071 125.441 80.3311 125.404C80.5644 125.367 80.7278 125.339 80.8211 125.32C81.0078 125.264 81.1571 125.185 81.2691 125.082C81.3811 124.97 81.5071 124.914 81.6471 124.914C81.7404 124.914 81.8711 124.951 82.0391 125.026C82.2164 125.101 82.3938 125.199 82.5711 125.32C82.7578 125.432 82.9118 125.558 83.0331 125.698C83.1544 125.829 83.2151 125.955 83.2151 126.076C83.2151 126.188 83.1684 126.286 83.0751 126.37C82.9911 126.445 82.8931 126.524 82.7811 126.608C82.6691 126.692 82.5711 126.799 82.4871 126.93C81.8244 128.106 81.0544 129.203 80.1771 130.22C79.2998 131.228 78.2918 132.133 77.1531 132.936C76.0238 133.729 74.7404 134.397 73.3031 134.938L73.1211 134.658ZM86.5891 129.842C86.9904 129.487 87.3778 129.1 87.7511 128.68C88.1338 128.251 88.4838 127.817 88.8011 127.378C89.1184 126.93 89.3938 126.501 89.6271 126.09C89.8698 125.67 90.0564 125.287 90.1871 124.942C90.3271 124.597 90.3971 124.317 90.3971 124.102C90.3971 123.934 90.3458 123.785 90.2431 123.654C90.1498 123.514 89.9911 123.337 89.7671 123.122L89.8931 122.926C90.1358 122.963 90.3598 123.01 90.5651 123.066C90.7704 123.113 90.9524 123.178 91.1111 123.262C91.2698 123.337 91.4238 123.439 91.5731 123.57C91.7318 123.701 91.8624 123.831 91.9651 123.962C92.0771 124.093 92.1331 124.219 92.1331 124.34C92.1331 124.48 92.0724 124.592 91.9511 124.676C91.8391 124.76 91.7271 124.886 91.6151 125.054C91.2418 125.698 90.8264 126.319 90.3691 126.916C89.9118 127.513 89.3938 128.078 88.8151 128.61C88.2364 129.133 87.5691 129.623 86.8131 130.08L86.5891 129.842ZM90.1171 126.286C90.2944 126.361 90.4671 126.426 90.6351 126.482C90.8124 126.529 90.9804 126.552 91.1391 126.552C91.2884 126.552 91.5031 126.538 91.7831 126.51C92.0724 126.473 92.3944 126.431 92.7491 126.384C93.1131 126.337 93.4724 126.291 93.8271 126.244C94.1911 126.188 94.5178 126.137 94.8071 126.09C95.0964 126.043 95.3158 126.011 95.4651 125.992C95.6798 125.955 95.8478 125.908 95.9691 125.852C96.0998 125.796 96.2024 125.745 96.2771 125.698C96.3611 125.651 96.4498 125.628 96.5431 125.628C96.7391 125.628 96.9444 125.665 97.1591 125.74C97.3738 125.815 97.5604 125.917 97.7191 126.048C97.8778 126.169 97.9571 126.314 97.9571 126.482C97.9571 126.613 97.9151 126.729 97.8311 126.832C97.7564 126.925 97.5978 126.972 97.3551 126.972C97.1871 126.972 96.9911 126.972 96.7671 126.972C96.5431 126.963 96.3098 126.958 96.0671 126.958C95.8244 126.958 95.5911 126.967 95.3671 126.986C95.1524 126.995 94.8958 127.019 94.5971 127.056C94.2984 127.093 93.9811 127.135 93.6451 127.182C93.3184 127.219 93.0058 127.257 92.7071 127.294C92.4084 127.331 92.1564 127.369 91.9511 127.406C91.7738 127.434 91.6058 127.467 91.4471 127.504C91.2978 127.541 91.1578 127.56 91.0271 127.56C90.9151 127.56 90.7844 127.513 90.6351 127.42C90.4951 127.317 90.3551 127.201 90.2151 127.07C90.0844 126.939 89.9724 126.823 89.8791 126.72L90.1171 126.286ZM88.4651 134.602L88.2691 134.35C88.9691 133.893 89.6038 133.375 90.1731 132.796C90.7424 132.208 91.2324 131.615 91.6431 131.018C92.0538 130.411 92.3664 129.847 92.5811 129.324C92.8051 128.792 92.9171 128.358 92.9171 128.022C92.9171 127.835 92.8751 127.677 92.7911 127.546C92.7071 127.406 92.5858 127.289 92.4271 127.196L92.6651 126.916C93.0198 126.981 93.3418 127.089 93.6311 127.238C93.9204 127.387 94.1538 127.546 94.3311 127.714C94.5084 127.873 94.5971 128.013 94.5971 128.134C94.5971 128.283 94.5411 128.409 94.4291 128.512C94.3171 128.615 94.2284 128.745 94.1631 128.904C93.8178 129.697 93.3791 130.444 92.8471 131.144C92.3244 131.844 91.6991 132.483 90.9711 133.062C90.2524 133.641 89.4171 134.154 88.4651 134.602ZM101.205 124.186L101.457 124.102C101.634 124.317 101.784 124.485 101.905 124.606C102.036 124.727 102.208 124.788 102.423 124.788C102.61 124.788 102.885 124.779 103.249 124.76C103.622 124.732 104.042 124.695 104.509 124.648C104.985 124.601 105.475 124.555 105.979 124.508C106.483 124.452 106.964 124.401 107.421 124.354C107.888 124.298 108.294 124.251 108.639 124.214C108.984 124.167 109.232 124.13 109.381 124.102C109.586 124.074 109.75 124.018 109.871 123.934C110.002 123.85 110.137 123.808 110.277 123.808C110.398 123.808 110.552 123.869 110.739 123.99C110.926 124.102 111.112 124.247 111.299 124.424C111.486 124.601 111.644 124.783 111.775 124.97C111.906 125.147 111.971 125.297 111.971 125.418C111.971 125.558 111.906 125.665 111.775 125.74C111.654 125.815 111.514 125.875 111.355 125.922C111.206 125.969 111.075 126.029 110.963 126.104C110.73 126.253 110.422 126.449 110.039 126.692C109.666 126.925 109.25 127.168 108.793 127.42C108.336 127.672 107.869 127.915 107.393 128.148L107.141 127.7C107.514 127.448 107.874 127.177 108.219 126.888C108.564 126.589 108.872 126.295 109.143 126.006C109.423 125.717 109.633 125.465 109.773 125.25C109.857 125.11 109.88 125.021 109.843 124.984C109.806 124.937 109.717 124.914 109.577 124.914C109.456 124.914 109.227 124.937 108.891 124.984C108.555 125.021 108.158 125.077 107.701 125.152C107.244 125.227 106.768 125.306 106.273 125.39C105.788 125.474 105.321 125.558 104.873 125.642C104.434 125.726 104.07 125.801 103.781 125.866C103.604 125.913 103.459 125.973 103.347 126.048C103.244 126.113 103.146 126.179 103.053 126.244C102.969 126.3 102.862 126.328 102.731 126.328C102.582 126.328 102.414 126.267 102.227 126.146C102.04 126.015 101.863 125.861 101.695 125.684C101.527 125.497 101.41 125.32 101.345 125.152C101.289 125.021 101.252 124.872 101.233 124.704C101.214 124.536 101.205 124.363 101.205 124.186ZM105.237 127.308L105.279 127.056C105.456 127.037 105.62 127.023 105.769 127.014C105.918 127.005 106.068 127.005 106.217 127.014C106.6 127.042 106.931 127.112 107.211 127.224C107.491 127.336 107.687 127.443 107.799 127.546C107.892 127.63 107.953 127.714 107.981 127.798C108.018 127.882 108.009 127.994 107.953 128.134C107.589 129.077 107.141 129.954 106.609 130.766C106.086 131.569 105.452 132.297 104.705 132.95C103.958 133.603 103.058 134.177 102.003 134.672L101.793 134.406C102.334 134.051 102.838 133.641 103.305 133.174C103.772 132.707 104.192 132.227 104.565 131.732C104.938 131.228 105.256 130.747 105.517 130.29C105.778 129.823 105.979 129.408 106.119 129.044C106.259 128.68 106.329 128.405 106.329 128.218C106.329 127.994 106.222 127.817 106.007 127.686C105.792 127.546 105.536 127.42 105.237 127.308Z" fill="#EFA3AF"/>
</svg>
