<svg width="56" height="56" viewBox="0 0 56 56" fill="none" xmlns="http://www.w3.org/2000/svg">
<path d="M4.53941 25.8145C4.94458 26.9373 5.45893 28.0391 6.08628 29.1063C11.5379 38.38 23.3713 41.4985 32.6875 36.1197C42.0292 30.7263 45.2298 18.7812 39.8365 9.43949C39.2427 8.41117 38.5697 7.45726 37.8293 6.58099C37.3067 5.96234 38.0004 5.06674 38.7317 5.41478C47.1541 9.42377 52.9798 18.005 52.9999 27.9491C53.0279 41.7424 41.7933 53.0007 27.9999 53.0007C14.1929 53.0007 3.00005 41.8078 3.00005 28.0007C3.00005 27.3348 3.02612 26.6749 3.0772 26.0221C3.14058 25.213 4.26402 25.0511 4.53941 25.8145Z" fill="#8C9AE9"/>
<path d="M3.07959 26.0209C3.14297 25.2118 4.26641 25.0499 4.5418 25.8133C4.94698 26.9361 5.46133 28.038 6.08868 29.1051C6.54747 29.8855 7.05147 30.6222 7.59522 31.314C10.0361 42.562 20.0474 50.9874 32.0265 50.9874C35.2253 50.9874 38.2865 50.3819 41.1016 49.2797C37.2891 51.6372 32.8005 52.9995 28.0023 52.9995C14.1953 52.9995 3.00245 41.8066 3.00245 27.9995C3.00245 27.3336 3.02852 26.6737 3.07959 26.0209Z" fill="#7182E4"/>
<path d="M20.0508 9.23241C22.1153 10.5934 23.8856 12.366 25.2484 14.4309C25.4408 14.7225 25.8684 14.7226 26.0611 14.4312C27.4263 12.3661 29.1969 10.5934 31.2615 9.23241C31.5532 9.04003 31.5536 8.61239 31.2621 8.41962C29.1972 7.05428 27.4264 5.28339 26.0611 3.21844C25.8684 2.92704 25.4409 2.92723 25.2485 3.21874C23.8856 5.28348 22.115 7.05428 20.0503 8.41952C19.7588 8.61239 19.7591 9.04012 20.0508 9.23241Z" fill="#8C9AE9"/>
<path d="M26.0619 3.21805C26.3443 3.6452 26.6441 4.05975 26.9603 4.46083C25.9932 5.60321 24.8882 6.62518 23.6707 7.50175C23.1096 7.90575 23.1102 8.74012 23.6717 9.14364C25.0648 10.1447 26.3106 11.3388 27.3711 12.6858C26.9014 13.2404 26.4641 13.8234 26.0619 14.4317C25.8694 14.7229 25.4418 14.7224 25.2495 14.4309C23.8867 12.366 22.1164 10.5934 20.052 9.23241C19.7603 9.04003 19.7599 8.61239 20.0514 8.41962C22.1161 7.05438 23.8866 5.28358 25.2495 3.21884C25.4419 2.92753 25.8693 2.92684 26.0619 3.21805Z" fill="#7182E4"/>
<path d="M23.6363 25.0804C24.6685 25.7609 25.5538 26.6472 26.2351 27.6797C26.3317 27.826 26.5448 27.8261 26.6414 27.6799C27.324 26.6473 28.2093 25.7609 29.2417 25.0804C29.388 24.9839 29.3882 24.7707 29.242 24.674C28.2095 23.9913 27.3241 23.1059 26.6414 22.0734C26.5447 21.9273 26.3317 21.9274 26.2351 22.0736C25.5537 23.1061 24.6683 23.9915 23.636 24.6741C23.4898 24.7707 23.4899 24.9839 23.6363 25.0804Z" fill="#8C9AE9"/>
<path d="M13.0105 20.5939C14.4457 21.5675 15.6856 22.8088 16.6602 24.2445C16.8547 24.531 17.2742 24.5312 17.469 24.2448C18.4452 22.809 19.6853 21.5676 21.1207 20.5939C21.4074 20.3995 21.4077 19.9798 21.1212 19.785C19.6856 18.8087 18.4452 17.5683 17.469 16.1326C17.2742 15.8463 16.8547 15.8465 16.6602 16.1329C15.6855 17.5684 14.4454 18.8087 13.0099 19.785C12.7236 19.9798 12.7239 20.3995 13.0105 20.5939Z" fill="#8C9AE9"/>
</svg>
