<svg width="88" height="16" viewBox="0 0 88 16" fill="none" xmlns="http://www.w3.org/2000/svg">
<path d="M16 16H0V0H16V16Z" stroke="#FFD700"/>
<path d="M7.68323 1.53058C7.71245 1.47155 7.75758 1.42187 7.81353 1.38713C7.86949 1.35239 7.93404 1.33398 7.9999 1.33398C8.06576 1.33398 8.13031 1.35239 8.18626 1.38713C8.24222 1.42187 8.28735 1.47155 8.31656 1.53058L9.85656 4.64991C9.95802 4.85523 10.1078 5.03285 10.293 5.16755C10.4782 5.30225 10.6933 5.38999 10.9199 5.42325L14.3639 5.92725C14.4292 5.9367 14.4905 5.96423 14.5409 6.00671C14.5913 6.0492 14.6288 6.10495 14.6492 6.16765C14.6696 6.23036 14.6721 6.29752 14.6563 6.36154C14.6405 6.42556 14.6071 6.48388 14.5599 6.52991L12.0692 8.95525C11.905 9.11531 11.7821 9.3129 11.7111 9.531C11.6402 9.7491 11.6233 9.98117 11.6619 10.2072L12.2499 13.6339C12.2614 13.6991 12.2544 13.7663 12.2296 13.8277C12.2048 13.8891 12.1632 13.9423 12.1096 13.9812C12.056 14.0202 11.9925 14.0432 11.9265 14.0478C11.8604 14.0524 11.7944 14.0384 11.7359 14.0072L8.65723 12.3886C8.45438 12.2821 8.22868 12.2264 7.99956 12.2264C7.77044 12.2264 7.54475 12.2821 7.3419 12.3886L4.2639 14.0072C4.20545 14.0382 4.1395 14.0521 4.07353 14.0474C4.00757 14.0427 3.94424 14.0196 3.89076 13.9807C3.83728 13.9418 3.79579 13.8887 3.771 13.8274C3.74622 13.7661 3.73914 13.699 3.75056 13.6339L4.3379 10.2079C4.37669 9.98174 4.35989 9.74951 4.28892 9.53128C4.21796 9.31304 4.09497 9.11535 3.93056 8.95525L1.4399 6.53058C1.39229 6.4846 1.35856 6.42618 1.34254 6.36196C1.32652 6.29775 1.32886 6.23033 1.34928 6.16737C1.36971 6.10442 1.40741 6.04847 1.45808 6.0059C1.50876 5.96333 1.57037 5.93585 1.6359 5.92658L5.07923 5.42325C5.30607 5.39025 5.52149 5.30262 5.70695 5.1679C5.89242 5.03319 6.04237 4.85543 6.1439 4.64991L7.68323 1.53058Z" stroke="#FFD700" stroke-width="1.33333" stroke-linecap="round" stroke-linejoin="round"/>
<path d="M34 16H18V0H34V16Z" stroke="#FFD700"/>
<path d="M25.6832 1.53058C25.7124 1.47155 25.7576 1.42187 25.8135 1.38713C25.8695 1.35239 25.934 1.33398 25.9999 1.33398C26.0658 1.33398 26.1303 1.35239 26.1863 1.38713C26.2422 1.42187 26.2873 1.47155 26.3166 1.53058L27.8566 4.64991C27.958 4.85523 28.1078 5.03285 28.293 5.16755C28.4782 5.30225 28.6933 5.38999 28.9199 5.42325L32.3639 5.92725C32.4292 5.9367 32.4905 5.96423 32.5409 6.00671C32.5913 6.0492 32.6288 6.10495 32.6492 6.16765C32.6696 6.23036 32.6721 6.29752 32.6563 6.36154C32.6405 6.42556 32.6071 6.48388 32.5599 6.52991L30.0692 8.95525C29.905 9.11531 29.7821 9.3129 29.7111 9.531C29.6402 9.7491 29.6233 9.98117 29.6619 10.2072L30.2499 13.6339C30.2614 13.6991 30.2544 13.7663 30.2296 13.8277C30.2048 13.8891 30.1632 13.9423 30.1096 13.9812C30.056 14.0202 29.9925 14.0432 29.9265 14.0478C29.8604 14.0524 29.7944 14.0384 29.7359 14.0072L26.6572 12.3886C26.4544 12.2821 26.2287 12.2264 25.9996 12.2264C25.7704 12.2264 25.5448 12.2821 25.3419 12.3886L22.2639 14.0072C22.2055 14.0382 22.1395 14.0521 22.0735 14.0474C22.0076 14.0427 21.9442 14.0196 21.8908 13.9807C21.8373 13.9418 21.7958 13.8887 21.771 13.8274C21.7462 13.7661 21.7391 13.699 21.7506 13.6339L22.3379 10.2079C22.3767 9.98174 22.3599 9.74951 22.2889 9.53128C22.218 9.31304 22.095 9.11535 21.9306 8.95525L19.4399 6.53058C19.3923 6.4846 19.3586 6.42618 19.3425 6.36196C19.3265 6.29775 19.3289 6.23033 19.3493 6.16737C19.3697 6.10442 19.4074 6.04847 19.4581 6.0059C19.5088 5.96333 19.5704 5.93585 19.6359 5.92658L23.0792 5.42325C23.3061 5.39025 23.5215 5.30262 23.707 5.1679C23.8924 5.03319 24.0424 4.85543 24.1439 4.64991L25.6832 1.53058Z" stroke="#FFD700" stroke-width="1.33333" stroke-linecap="round" stroke-linejoin="round"/>
<path d="M52 16H36V0H52V16Z" stroke="#FFD700"/>
<path d="M43.6832 1.53058C43.7124 1.47155 43.7576 1.42187 43.8135 1.38713C43.8695 1.35239 43.934 1.33398 43.9999 1.33398C44.0658 1.33398 44.1303 1.35239 44.1863 1.38713C44.2422 1.42187 44.2873 1.47155 44.3166 1.53058L45.8566 4.64991C45.958 4.85523 46.1078 5.03285 46.293 5.16755C46.4782 5.30225 46.6933 5.38999 46.9199 5.42325L50.3639 5.92725C50.4292 5.9367 50.4905 5.96423 50.5409 6.00671C50.5913 6.0492 50.6288 6.10495 50.6492 6.16765C50.6696 6.23036 50.6721 6.29752 50.6563 6.36154C50.6405 6.42556 50.6071 6.48388 50.5599 6.52991L48.0692 8.95525C47.905 9.11531 47.7821 9.3129 47.7111 9.531C47.6402 9.7491 47.6233 9.98117 47.6619 10.2072L48.2499 13.6339C48.2614 13.6991 48.2544 13.7663 48.2296 13.8277C48.2048 13.8891 48.1632 13.9423 48.1096 13.9812C48.056 14.0202 47.9925 14.0432 47.9265 14.0478C47.8604 14.0524 47.7944 14.0384 47.7359 14.0072L44.6572 12.3886C44.4544 12.2821 44.2287 12.2264 43.9996 12.2264C43.7704 12.2264 43.5448 12.2821 43.3419 12.3886L40.2639 14.0072C40.2055 14.0382 40.1395 14.0521 40.0735 14.0474C40.0076 14.0427 39.9442 14.0196 39.8908 13.9807C39.8373 13.9418 39.7958 13.8887 39.771 13.8274C39.7462 13.7661 39.7391 13.699 39.7506 13.6339L40.3379 10.2079C40.3767 9.98174 40.3599 9.74951 40.2889 9.53128C40.218 9.31304 40.095 9.11535 39.9306 8.95525L37.4399 6.53058C37.3923 6.4846 37.3586 6.42618 37.3425 6.36196C37.3265 6.29775 37.3289 6.23033 37.3493 6.16737C37.3697 6.10442 37.4074 6.04847 37.4581 6.0059C37.5088 5.96333 37.5704 5.93585 37.6359 5.92658L41.0792 5.42325C41.3061 5.39025 41.5215 5.30262 41.707 5.1679C41.8924 5.03319 42.0424 4.85543 42.1439 4.64991L43.6832 1.53058Z" stroke="#FFD700" stroke-width="1.33333" stroke-linecap="round" stroke-linejoin="round"/>
<path d="M70 16H54V0H70V16Z" stroke="#FFD700"/>
<path d="M61.6832 1.53058C61.7124 1.47155 61.7576 1.42187 61.8135 1.38713C61.8695 1.35239 61.934 1.33398 61.9999 1.33398C62.0658 1.33398 62.1303 1.35239 62.1863 1.38713C62.2422 1.42187 62.2873 1.47155 62.3166 1.53058L63.8566 4.64991C63.958 4.85523 64.1078 5.03285 64.293 5.16755C64.4782 5.30225 64.6933 5.38999 64.9199 5.42325L68.3639 5.92725C68.4292 5.9367 68.4905 5.96423 68.5409 6.00671C68.5913 6.0492 68.6288 6.10495 68.6492 6.16765C68.6696 6.23036 68.6721 6.29752 68.6563 6.36154C68.6405 6.42556 68.6071 6.48388 68.5599 6.52991L66.0692 8.95525C65.905 9.11531 65.7821 9.3129 65.7111 9.531C65.6402 9.7491 65.6233 9.98117 65.6619 10.2072L66.2499 13.6339C66.2614 13.6991 66.2544 13.7663 66.2296 13.8277C66.2048 13.8891 66.1632 13.9423 66.1096 13.9812C66.056 14.0202 65.9925 14.0432 65.9265 14.0478C65.8604 14.0524 65.7944 14.0384 65.7359 14.0072L62.6572 12.3886C62.4544 12.2821 62.2287 12.2264 61.9996 12.2264C61.7704 12.2264 61.5448 12.2821 61.3419 12.3886L58.2639 14.0072C58.2055 14.0382 58.1395 14.0521 58.0735 14.0474C58.0076 14.0427 57.9442 14.0196 57.8908 13.9807C57.8373 13.9418 57.7958 13.8887 57.771 13.8274C57.7462 13.7661 57.7391 13.699 57.7506 13.6339L58.3379 10.2079C58.3767 9.98174 58.3599 9.74951 58.2889 9.53128C58.218 9.31304 58.095 9.11535 57.9306 8.95525L55.4399 6.53058C55.3923 6.4846 55.3586 6.42618 55.3425 6.36196C55.3265 6.29775 55.3289 6.23033 55.3493 6.16737C55.3697 6.10442 55.4074 6.04847 55.4581 6.0059C55.5088 5.96333 55.5704 5.93585 55.6359 5.92658L59.0792 5.42325C59.3061 5.39025 59.5215 5.30262 59.707 5.1679C59.8924 5.03319 60.0424 4.85543 60.1439 4.64991L61.6832 1.53058Z" stroke="#FFD700" stroke-width="1.33333" stroke-linecap="round" stroke-linejoin="round"/>
<path d="M88 16H72V0H88V16Z" stroke="#FFD700"/>
<path d="M79.6832 1.53058C79.7124 1.47155 79.7576 1.42187 79.8135 1.38713C79.8695 1.35239 79.934 1.33398 79.9999 1.33398C80.0658 1.33398 80.1303 1.35239 80.1863 1.38713C80.2422 1.42187 80.2873 1.47155 80.3166 1.53058L81.8566 4.64991C81.958 4.85523 82.1078 5.03285 82.293 5.16755C82.4782 5.30225 82.6933 5.38999 82.9199 5.42325L86.3639 5.92725C86.4292 5.9367 86.4905 5.96423 86.5409 6.00671C86.5913 6.0492 86.6288 6.10495 86.6492 6.16765C86.6696 6.23036 86.6721 6.29752 86.6563 6.36154C86.6405 6.42556 86.6071 6.48388 86.5599 6.52991L84.0692 8.95525C83.905 9.11531 83.7821 9.3129 83.7111 9.531C83.6402 9.7491 83.6233 9.98117 83.6619 10.2072L84.2499 13.6339C84.2614 13.6991 84.2544 13.7663 84.2296 13.8277C84.2048 13.8891 84.1632 13.9423 84.1096 13.9812C84.056 14.0202 83.9925 14.0432 83.9265 14.0478C83.8604 14.0524 83.7944 14.0384 83.7359 14.0072L80.6572 12.3886C80.4544 12.2821 80.2287 12.2264 79.9996 12.2264C79.7704 12.2264 79.5448 12.2821 79.3419 12.3886L76.2639 14.0072C76.2055 14.0382 76.1395 14.0521 76.0735 14.0474C76.0076 14.0427 75.9442 14.0196 75.8908 13.9807C75.8373 13.9418 75.7958 13.8887 75.771 13.8274C75.7462 13.7661 75.7391 13.699 75.7506 13.6339L76.3379 10.2079C76.3767 9.98174 76.3599 9.74951 76.2889 9.53128C76.218 9.31304 76.095 9.11535 75.9306 8.95525L73.4399 6.53058C73.3923 6.4846 73.3586 6.42618 73.3425 6.36196C73.3265 6.29775 73.3289 6.23033 73.3493 6.16737C73.3697 6.10442 73.4074 6.04847 73.4581 6.0059C73.5088 5.96333 73.5704 5.93585 73.6359 5.92658L77.0792 5.42325C77.3061 5.39025 77.5215 5.30262 77.707 5.1679C77.8924 5.03319 78.0424 4.85543 78.1439 4.64991L79.6832 1.53058Z" stroke="#FFD700" stroke-width="1.33333" stroke-linecap="round" stroke-linejoin="round"/>
</svg>
