<svg width="88" height="16" viewBox="0 0 88 16" fill="none" xmlns="http://www.w3.org/2000/svg">
<path d="M16 16H0V0H16V16Z" stroke="#FFD700"/>
<path d="M7.68323 1.52863C7.71245 1.4696 7.75758 1.41992 7.81353 1.38518C7.86949 1.35044 7.93404 1.33203 7.9999 1.33203C8.06576 1.33203 8.13031 1.35044 8.18626 1.38518C8.24222 1.41992 8.28735 1.4696 8.31656 1.52863L9.85656 4.64796C9.95802 4.85327 10.1078 5.0309 10.293 5.1656C10.4782 5.30029 10.6933 5.38804 10.9199 5.42129L14.3639 5.92529C14.4292 5.93475 14.4905 5.96228 14.5409 6.00476C14.5913 6.04724 14.6288 6.10299 14.6492 6.1657C14.6696 6.2284 14.6721 6.29556 14.6563 6.35958C14.6405 6.4236 14.6071 6.48193 14.5599 6.52796L12.0692 8.95329C11.905 9.11336 11.7821 9.31095 11.7111 9.52905C11.6402 9.74714 11.6233 9.97922 11.6619 10.2053L12.2499 13.632C12.2614 13.6972 12.2544 13.7643 12.2296 13.8258C12.2048 13.8872 12.1632 13.9404 12.1096 13.9793C12.056 14.0182 11.9925 14.0413 11.9265 14.0459C11.8604 14.0505 11.7944 14.0364 11.7359 14.0053L8.65723 12.3866C8.45438 12.2801 8.22868 12.2245 7.99956 12.2245C7.77044 12.2245 7.54475 12.2801 7.3419 12.3866L4.2639 14.0053C4.20545 14.0362 4.1395 14.0502 4.07353 14.0455C4.00757 14.0408 3.94424 14.0177 3.89076 13.9788C3.83728 13.9399 3.79579 13.8868 3.771 13.8254C3.74622 13.7641 3.73914 13.6971 3.75056 13.632L4.3379 10.206C4.37669 9.97978 4.35989 9.74756 4.28892 9.52933C4.21796 9.31109 4.09497 9.1134 3.93056 8.95329L1.4399 6.52863C1.39229 6.48265 1.35856 6.42422 1.34254 6.36001C1.32652 6.2958 1.32886 6.22837 1.34928 6.16542C1.36971 6.10247 1.40741 6.04652 1.45808 6.00395C1.50876 5.96138 1.57037 5.93389 1.6359 5.92463L5.07923 5.42129C5.30607 5.38829 5.52149 5.30067 5.70695 5.16595C5.89242 5.03124 6.04237 4.85347 6.1439 4.64796L7.68323 1.52863Z" stroke="#FFD700" stroke-width="1.33333" stroke-linecap="round" stroke-linejoin="round"/>
<path d="M34 16H18V0H34V16Z" stroke="#FFD700"/>
<path d="M25.6832 1.52863C25.7124 1.4696 25.7576 1.41992 25.8135 1.38518C25.8695 1.35044 25.934 1.33203 25.9999 1.33203C26.0658 1.33203 26.1303 1.35044 26.1863 1.38518C26.2422 1.41992 26.2873 1.4696 26.3166 1.52863L27.8566 4.64796C27.958 4.85327 28.1078 5.0309 28.293 5.1656C28.4782 5.30029 28.6933 5.38804 28.9199 5.42129L32.3639 5.92529C32.4292 5.93475 32.4905 5.96228 32.5409 6.00476C32.5913 6.04724 32.6288 6.10299 32.6492 6.1657C32.6696 6.2284 32.6721 6.29556 32.6563 6.35958C32.6405 6.4236 32.6071 6.48193 32.5599 6.52796L30.0692 8.95329C29.905 9.11336 29.7821 9.31095 29.7111 9.52905C29.6402 9.74714 29.6233 9.97922 29.6619 10.2053L30.2499 13.632C30.2614 13.6972 30.2544 13.7643 30.2296 13.8258C30.2048 13.8872 30.1632 13.9404 30.1096 13.9793C30.056 14.0182 29.9925 14.0413 29.9265 14.0459C29.8604 14.0505 29.7944 14.0364 29.7359 14.0053L26.6572 12.3866C26.4544 12.2801 26.2287 12.2245 25.9996 12.2245C25.7704 12.2245 25.5448 12.2801 25.3419 12.3866L22.2639 14.0053C22.2055 14.0362 22.1395 14.0502 22.0735 14.0455C22.0076 14.0408 21.9442 14.0177 21.8908 13.9788C21.8373 13.9399 21.7958 13.8868 21.771 13.8254C21.7462 13.7641 21.7391 13.6971 21.7506 13.632L22.3379 10.206C22.3767 9.97978 22.3599 9.74756 22.2889 9.52933C22.218 9.31109 22.095 9.1134 21.9306 8.95329L19.4399 6.52863C19.3923 6.48265 19.3586 6.42422 19.3425 6.36001C19.3265 6.2958 19.3289 6.22837 19.3493 6.16542C19.3697 6.10247 19.4074 6.04652 19.4581 6.00395C19.5088 5.96138 19.5704 5.93389 19.6359 5.92463L23.0792 5.42129C23.3061 5.38829 23.5215 5.30067 23.707 5.16595C23.8924 5.03124 24.0424 4.85347 24.1439 4.64796L25.6832 1.52863Z" stroke="#FFD700" stroke-width="1.33333" stroke-linecap="round" stroke-linejoin="round"/>
<path d="M52 16H36V0H52V16Z" stroke="#FFD700"/>
<path d="M43.6832 1.52863C43.7124 1.4696 43.7576 1.41992 43.8135 1.38518C43.8695 1.35044 43.934 1.33203 43.9999 1.33203C44.0658 1.33203 44.1303 1.35044 44.1863 1.38518C44.2422 1.41992 44.2873 1.4696 44.3166 1.52863L45.8566 4.64796C45.958 4.85327 46.1078 5.0309 46.293 5.1656C46.4782 5.30029 46.6933 5.38804 46.9199 5.42129L50.3639 5.92529C50.4292 5.93475 50.4905 5.96228 50.5409 6.00476C50.5913 6.04724 50.6288 6.10299 50.6492 6.1657C50.6696 6.2284 50.6721 6.29556 50.6563 6.35958C50.6405 6.4236 50.6071 6.48193 50.5599 6.52796L48.0692 8.95329C47.905 9.11336 47.7821 9.31095 47.7111 9.52905C47.6402 9.74714 47.6233 9.97922 47.6619 10.2053L48.2499 13.632C48.2614 13.6972 48.2544 13.7643 48.2296 13.8258C48.2048 13.8872 48.1632 13.9404 48.1096 13.9793C48.056 14.0182 47.9925 14.0413 47.9265 14.0459C47.8604 14.0505 47.7944 14.0364 47.7359 14.0053L44.6572 12.3866C44.4544 12.2801 44.2287 12.2245 43.9996 12.2245C43.7704 12.2245 43.5448 12.2801 43.3419 12.3866L40.2639 14.0053C40.2055 14.0362 40.1395 14.0502 40.0735 14.0455C40.0076 14.0408 39.9442 14.0177 39.8908 13.9788C39.8373 13.9399 39.7958 13.8868 39.771 13.8254C39.7462 13.7641 39.7391 13.6971 39.7506 13.632L40.3379 10.206C40.3767 9.97978 40.3599 9.74756 40.2889 9.52933C40.218 9.31109 40.095 9.1134 39.9306 8.95329L37.4399 6.52863C37.3923 6.48265 37.3586 6.42422 37.3425 6.36001C37.3265 6.2958 37.3289 6.22837 37.3493 6.16542C37.3697 6.10247 37.4074 6.04652 37.4581 6.00395C37.5088 5.96138 37.5704 5.93389 37.6359 5.92463L41.0792 5.42129C41.3061 5.38829 41.5215 5.30067 41.707 5.16595C41.8924 5.03124 42.0424 4.85347 42.1439 4.64796L43.6832 1.52863Z" stroke="#FFD700" stroke-width="1.33333" stroke-linecap="round" stroke-linejoin="round"/>
<path d="M70 16H54V0H70V16Z" stroke="#FFD700"/>
<path d="M61.6832 1.52863C61.7124 1.4696 61.7576 1.41992 61.8135 1.38518C61.8695 1.35044 61.934 1.33203 61.9999 1.33203C62.0658 1.33203 62.1303 1.35044 62.1863 1.38518C62.2422 1.41992 62.2873 1.4696 62.3166 1.52863L63.8566 4.64796C63.958 4.85327 64.1078 5.0309 64.293 5.1656C64.4782 5.30029 64.6933 5.38804 64.9199 5.42129L68.3639 5.92529C68.4292 5.93475 68.4905 5.96228 68.5409 6.00476C68.5913 6.04724 68.6288 6.10299 68.6492 6.1657C68.6696 6.2284 68.6721 6.29556 68.6563 6.35958C68.6405 6.4236 68.6071 6.48193 68.5599 6.52796L66.0692 8.95329C65.905 9.11336 65.7821 9.31095 65.7111 9.52905C65.6402 9.74714 65.6233 9.97922 65.6619 10.2053L66.2499 13.632C66.2614 13.6972 66.2544 13.7643 66.2296 13.8258C66.2048 13.8872 66.1632 13.9404 66.1096 13.9793C66.056 14.0182 65.9925 14.0413 65.9265 14.0459C65.8604 14.0505 65.7944 14.0364 65.7359 14.0053L62.6572 12.3866C62.4544 12.2801 62.2287 12.2245 61.9996 12.2245C61.7704 12.2245 61.5448 12.2801 61.3419 12.3866L58.2639 14.0053C58.2055 14.0362 58.1395 14.0502 58.0735 14.0455C58.0076 14.0408 57.9442 14.0177 57.8908 13.9788C57.8373 13.9399 57.7958 13.8868 57.771 13.8254C57.7462 13.7641 57.7391 13.6971 57.7506 13.632L58.3379 10.206C58.3767 9.97978 58.3599 9.74756 58.2889 9.52933C58.218 9.31109 58.095 9.1134 57.9306 8.95329L55.4399 6.52863C55.3923 6.48265 55.3586 6.42422 55.3425 6.36001C55.3265 6.2958 55.3289 6.22837 55.3493 6.16542C55.3697 6.10247 55.4074 6.04652 55.4581 6.00395C55.5088 5.96138 55.5704 5.93389 55.6359 5.92463L59.0792 5.42129C59.3061 5.38829 59.5215 5.30067 59.707 5.16595C59.8924 5.03124 60.0424 4.85347 60.1439 4.64796L61.6832 1.52863Z" stroke="#FFD700" stroke-width="1.33333" stroke-linecap="round" stroke-linejoin="round"/>
<path d="M88 16H72V0H88V16Z" stroke="#FFD700"/>
<path d="M79.6832 1.52863C79.7124 1.4696 79.7576 1.41992 79.8135 1.38518C79.8695 1.35044 79.934 1.33203 79.9999 1.33203C80.0658 1.33203 80.1303 1.35044 80.1863 1.38518C80.2422 1.41992 80.2873 1.4696 80.3166 1.52863L81.8566 4.64796C81.958 4.85327 82.1078 5.0309 82.293 5.1656C82.4782 5.30029 82.6933 5.38804 82.9199 5.42129L86.3639 5.92529C86.4292 5.93475 86.4905 5.96228 86.5409 6.00476C86.5913 6.04724 86.6288 6.10299 86.6492 6.1657C86.6696 6.2284 86.6721 6.29556 86.6563 6.35958C86.6405 6.4236 86.6071 6.48193 86.5599 6.52796L84.0692 8.95329C83.905 9.11336 83.7821 9.31095 83.7111 9.52905C83.6402 9.74714 83.6233 9.97922 83.6619 10.2053L84.2499 13.632C84.2614 13.6972 84.2544 13.7643 84.2296 13.8258C84.2048 13.8872 84.1632 13.9404 84.1096 13.9793C84.056 14.0182 83.9925 14.0413 83.9265 14.0459C83.8604 14.0505 83.7944 14.0364 83.7359 14.0053L80.6572 12.3866C80.4544 12.2801 80.2287 12.2245 79.9996 12.2245C79.7704 12.2245 79.5448 12.2801 79.3419 12.3866L76.2639 14.0053C76.2055 14.0362 76.1395 14.0502 76.0735 14.0455C76.0076 14.0408 75.9442 14.0177 75.8908 13.9788C75.8373 13.9399 75.7958 13.8868 75.771 13.8254C75.7462 13.7641 75.7391 13.6971 75.7506 13.632L76.3379 10.206C76.3767 9.97978 76.3599 9.74756 76.2889 9.52933C76.218 9.31109 76.095 9.1134 75.9306 8.95329L73.4399 6.52863C73.3923 6.48265 73.3586 6.42422 73.3425 6.36001C73.3265 6.2958 73.3289 6.22837 73.3493 6.16542C73.3697 6.10247 73.4074 6.04652 73.4581 6.00395C73.5088 5.96138 73.5704 5.93389 73.6359 5.92463L77.0792 5.42129C77.3061 5.38829 77.5215 5.30067 77.707 5.16595C77.8924 5.03124 78.0424 4.85347 78.1439 4.64796L79.6832 1.52863Z" stroke="#FFD700" stroke-width="1.33333" stroke-linecap="round" stroke-linejoin="round"/>
</svg>
