<svg width="28" height="27" viewBox="0 0 28 27" fill="none" xmlns="http://www.w3.org/2000/svg">
<path d="M14 0C21.715 0 27.9998 5.13384 28 11.4287C28 13.9494 27.0157 16.2194 24.9951 18.4629C22.0561 21.8677 15.4959 25.9983 14 26.6318C12.5045 27.2652 12.7268 26.2364 12.7793 25.8799C12.8055 25.7391 12.8716 25.3386 12.9766 24.6787C13.029 24.3092 13.0818 23.7547 12.9375 23.3984C12.78 23.0027 12.1633 22.8048 11.7041 22.6992C4.97308 21.815 0 17.0771 0 11.4287C0.000184235 5.13384 6.2719 2.03431e-06 14 0ZM4.63574 8.16992C4.49156 8.1701 4.37402 8.28853 4.37402 8.43359V14.583C4.37402 14.7281 4.49156 14.8475 4.63574 14.8477H8.57227C8.7166 14.8477 8.83496 14.7282 8.83496 14.583V13.5801C8.83482 13.435 8.71651 13.3164 8.57227 13.3164H5.89551V8.43359C5.89551 8.28843 5.77714 8.16992 5.63281 8.16992H4.63574ZM9.93652 8.16992C9.79178 8.1701 9.6748 8.28793 9.6748 8.43359V14.583C9.6748 14.7287 9.79178 14.8475 9.93652 14.8477H10.9336C11.0785 14.8477 11.1963 14.7288 11.1963 14.583V8.43359C11.1963 8.28782 11.0785 8.16992 10.9336 8.16992H9.93652ZM12.4297 8.16992C12.2854 8.17004 12.1543 8.2885 12.1543 8.43359V14.583C12.1543 14.7281 12.2854 14.8475 12.4297 14.8477H13.4141C13.5715 14.8476 13.6895 14.7282 13.6895 14.583V10.9277L16.4844 14.7285C16.5019 14.7549 16.5236 14.7773 16.5498 14.7949H16.5635C16.5636 14.8034 16.5676 14.8076 16.5762 14.8076C16.5763 14.8078 16.5803 14.8126 16.5889 14.8213H16.6152V14.834H16.6416C16.659 14.8427 16.6809 14.8476 16.707 14.8477H17.6914C17.8488 14.8476 17.9668 14.7282 17.9668 14.583V8.43359C17.9668 8.28843 17.8488 8.16993 17.6914 8.16992H16.707C16.5628 8.17008 16.4316 8.28852 16.4316 8.43359V12.0762L13.6367 8.28809C13.6366 8.27936 13.6327 8.27044 13.624 8.26172L13.585 8.22266C13.585 8.22266 13.58 8.22266 13.5713 8.22266C13.5713 8.21395 13.5672 8.20908 13.5586 8.20898V8.19629H13.5322C13.5235 8.18749 13.5186 8.18262 13.5186 8.18262H13.5059C13.4972 8.18262 13.4933 8.17846 13.4932 8.16992H12.4297ZM19.1875 8.16992C19.0432 8.16992 18.9248 8.28843 18.9248 8.43359V14.583C18.9248 14.7282 19.0432 14.8477 19.1875 14.8477H23.123C23.2674 14.8477 23.3857 14.7282 23.3857 14.583V13.5801C23.3856 13.435 23.2673 13.3164 23.123 13.3164H20.4463V12.2734H23.123C23.2674 12.2734 23.3857 12.1549 23.3857 12.0098V11.0068C23.3857 10.8617 23.2674 10.7432 23.123 10.7432H20.4463V9.7002H23.123C23.2674 9.7002 23.3857 9.58166 23.3857 9.43652V8.43359C23.3857 8.28843 23.2674 8.16992 23.123 8.16992H19.1875Z" fill="white"/>
</svg>
