<svg width="48" height="46" viewBox="0 0 48 46" fill="none" xmlns="http://www.w3.org/2000/svg">
<path d="M24 0C37.2258 0 47.9999 8.80046 48 19.5918C48 23.9128 46.3134 27.8045 42.8496 31.6504C37.8112 37.4873 26.5642 44.5684 24 45.6543C21.4364 46.74 21.8181 44.9765 21.9082 44.3652C21.9532 44.1239 22.0652 43.4368 22.2451 42.3057C22.3351 41.6722 22.4251 40.7221 22.1777 40.1113C21.9076 39.4328 20.8506 39.0931 20.0635 38.9121C8.52473 37.3962 0 29.2746 0 19.5918C0.000130363 8.80046 10.7517 3.6082e-06 24 0ZM7.94727 14.0039C7.69997 14.0041 7.49805 14.2083 7.49805 14.457V24.999C7.49805 25.2478 7.69997 25.452 7.94727 25.4521H14.6953C14.9427 25.4521 15.1455 25.2479 15.1455 24.999V23.2803C15.1455 23.0314 14.9427 22.8271 14.6953 22.8271H10.1064V14.457C10.1064 14.2082 9.90455 14.004 9.65723 14.0039H7.94727ZM17.0342 14.0039C16.786 14.0041 16.585 14.2073 16.585 14.457V24.999C16.585 25.2488 16.786 25.4519 17.0342 25.4521H18.7441C18.9923 25.4519 19.1934 25.2488 19.1934 24.999V14.457C19.1934 14.2073 18.9923 14.0041 18.7441 14.0039H17.0342ZM21.3086 14.0039C21.0612 14.0039 20.8359 14.2082 20.8359 14.457V24.999C20.8359 25.2479 21.0612 25.4521 21.3086 25.4521H22.9951C23.265 25.4521 23.4678 25.2479 23.4678 24.999V18.7324L28.2588 25.248C28.2888 25.2933 28.3262 25.3312 28.3711 25.3613H28.3936C28.3936 25.3764 28.4011 25.3837 28.416 25.3838C28.416 25.3838 28.4237 25.3914 28.4385 25.4062H28.4834V25.4297H28.5283C28.5583 25.4448 28.5966 25.4521 28.6416 25.4521H30.3281C30.598 25.4521 30.8008 25.2479 30.8008 24.999V14.457C30.8008 14.2082 30.598 14.0039 30.3281 14.0039H28.6416C28.3942 14.0039 28.1689 14.2082 28.1689 14.457V20.7012L23.3779 14.208C23.3779 14.193 23.3703 14.1781 23.3555 14.1631C23.3405 14.148 23.3255 14.1323 23.3105 14.1172C23.2964 14.103 23.2889 14.0955 23.2881 14.0947C23.2881 14.0947 23.2804 14.0947 23.2656 14.0947C23.2656 14.0799 23.2579 14.0724 23.2432 14.0723C23.2432 14.0723 23.2432 14.0648 23.2432 14.0498H23.1982C23.1852 14.0367 23.1775 14.0291 23.1758 14.0273H23.1533C23.1383 14.0273 23.1299 14.019 23.1299 14.0039H21.3086ZM32.8926 14.0039C32.6452 14.0039 32.4424 14.2082 32.4424 14.457V24.999C32.4424 25.2479 32.6452 25.4521 32.8926 25.4521H39.6396C39.8871 25.4521 40.0898 25.2479 40.0898 24.999V23.2803C40.0898 23.0314 39.8871 22.8271 39.6396 22.8271H35.0518V21.04H39.6396C39.887 21.04 40.0898 20.8367 40.0898 20.5879V18.8682C40.0897 18.6194 39.887 18.416 39.6396 18.416H35.0518V16.6289H39.6396C39.8871 16.6289 40.0898 16.4246 40.0898 16.1758V14.457C40.0898 14.2082 39.8871 14.0039 39.6396 14.0039H32.8926Z" fill="white"/>
</svg>
