<svg width="18" height="19" viewBox="0 0 18 19" fill="none" xmlns="http://www.w3.org/2000/svg">
<path d="M8.15 5.45833C7.79167 5.63333 7.51667 5.91667 7.33333 6.25H2.08333C0.933333 6.25 0 7.18333 0 8.33333V15C0 16.15 0.933333 17.0833 2.08333 17.0833H7.25833C7.58333 17.8167 8.31667 18.3333 9.16667 18.3333H15.8333C16.9833 18.3333 17.9167 17.4 17.9167 16.25V7.18333C17.9167 6.45 17.5083 5.79167 16.85 5.45833C16.475 5.275 16.25 4.9 16.25 4.48333V4.09167C16.7333 3.91667 17.0833 3.45833 17.0833 2.91667V1.25C17.0833 0.558333 16.525 0 15.8333 0H9.16667C8.475 0 7.91667 0.558333 7.91667 1.25V2.91667C7.91667 3.45833 8.26667 3.91667 8.75 4.09167V4.48333C8.75 4.9 8.51667 5.275 8.15 5.45833ZM7.08333 10.2833C6.84167 10.1417 6.66667 9.88333 6.66667 9.575C6.66667 9.26667 6.84167 9.01667 7.08333 8.86667V10.275V10.2833ZM7.08333 14.45C6.84167 14.3083 6.66667 14.05 6.66667 13.7417C6.66667 13.4333 6.84167 13.1833 7.08333 13.0333V14.4417V14.45ZM2.08333 16.2417C1.39167 16.2417 0.833333 15.6833 0.833333 14.9917V8.325C0.833333 7.63333 1.39167 7.075 2.08333 7.075H7.1C7.1 7.075 7.08333 7.14167 7.08333 7.175V7.96667C6.36667 8.15 5.83333 8.8 5.83333 9.575C5.83333 10.35 6.36667 11 7.08333 11.1833V12.1333C6.36667 12.3167 5.83333 12.9667 5.83333 13.7417C5.83333 14.5167 6.36667 15.1667 7.08333 15.35V16.2417H2.08333ZM12.0833 15.825V8.425H17.0833V15.825H12.0833ZM16.4833 6.2C16.8583 6.38333 17.0833 6.75833 17.0833 7.175V7.59167H11.6667C11.4333 7.59167 11.25 7.775 11.25 8.00833V16.2417C11.25 16.475 11.4333 16.6583 11.6667 16.6583H17.0083C16.8333 17.1417 16.375 17.4917 15.8333 17.4917H9.16667C8.475 17.4917 7.91667 16.9333 7.91667 16.2417V7.175C7.91667 6.75833 8.15 6.38333 8.51667 6.2C8.66667 6.125 8.79167 6.03333 8.91667 5.925H14.1667C14.4 5.925 14.5833 5.74167 14.5833 5.50833C14.5833 5.275 14.4 5.09167 14.1667 5.09167H9.475C9.54167 4.9 9.58333 4.69167 9.58333 4.475V4.15833H15.4167V4.475C15.4167 5.20833 15.825 5.86667 16.4833 6.2ZM8.75 1.25C8.75 1.01667 8.93333 0.833333 9.16667 0.833333H15.8333C16.0667 0.833333 16.25 1.01667 16.25 1.25V2.91667C16.25 3.15 16.0667 3.33333 15.8333 3.33333H9.16667C8.93333 3.33333 8.75 3.15 8.75 2.91667V1.25Z" fill="#EFA3AF"/>
</svg>
